<?xml version="1.0" encoding="utf-8"?>
<!-- Generator: Adobe Illustrator 23.0.1, SVG Export Plug-In . SVG Version: 6.00 Build 0)  -->
<svg version="1.1" id="Слой_2" xmlns="http://www.w3.org/2000/svg" xmlns:xlink="http://www.w3.org/1999/xlink" x="0px" y="0px"
	 viewBox="0 0 2266.3 1213.5" style="enable-background:new 0 0 2266.3 1213.5;" xml:space="preserve">
<style type="text/css">
	.st0{opacity:0.2;fill:#E9CA6D;}
	.st1{fill:#DC8D39;}
	.st2{fill:#221E50;}
	.st3{fill:#2B295E;}
	.st4{fill:#333383;}
	.st5{fill:#AF7041;}
	.st6{fill:#A05F32;}
	.st7{fill:#555CA5;}
	.st8{fill:#F2D370;}
	.st9{opacity:0.2;fill:#DE8F39;}
	.st10{fill:#FFFFFF;}
	.st11{fill:#D5652C;}
	.st12{fill:#C5592D;}
	.st13{fill:#4F54A0;}
	.st14{fill:#D35C2B;}
	.st15{fill:#DE8F39;}
	.st16{fill:#D0D6EC;}
	.st17{fill:#DFE5F4;}
	.st18{opacity:0.6;fill:#D0D6EC;}
</style>
<g>
	<path id="_x0A_background_1_" class="st0" d="M1913.2,580.6L1913.2,580.6c-66.1,0-126.7,15.8-173,41.8c-33.7,19-79.3-0.8-79.3-34.7
		V430.3c0-154.6-146.9-281.1-326.5-281.1h0c-179.6,0-326.5,126.5-326.5,281.1v0c0,92.5-97.8,164.6-208.3,152.6
		c-14.2-1.5-28.9-2.3-43.7-2.3h0c-144,0-261.8,75.1-261.8,166.8v29.7c0,8.4-8.2,15.2-18.3,15.2h-0.2h0
		c-100.1,0-182.1,49.8-182.1,110.7v307h200.6h163.6H1008h9.8h633.6h9.6H2175V747.3C2175,655.6,2057.2,580.6,1913.2,580.6z"/>
	<path class="st1" d="M2470.3,1209.9H5.9c-3.2,0-5.9,2.7-5.9,5.9c0,3.2,2.6,5.9,5.9,5.9h2464.5c2.7,0,4.8-2.7,4.8-5.9
		C2475.2,1212.6,2473,1209.9,2470.3,1209.9z"/>
	<g>
		<path class="st2" d="M803.1,1184.3l7.7,25.6h76.7C887.6,1209.9,868,1175.4,803.1,1184.3z"/>
		<path class="st2" d="M635.4,1184.3l7.7,25.6h76.7C719.9,1209.9,700.3,1175.4,635.4,1184.3z"/>
		<path class="st3" d="M870.2,1189.7l-59.5-0.8l-14.2-0.2c0,0-29.2-126-40.4-265.8c-1.5-18.6-4-30.7-5.3-43.7
			c-11.2,128.2-26,274.6-46.8,310.4l-71.8-0.9c0,0-3.1-89.5,2.9-260.5c2.2-117.2,6-233.3,12.7-250.6h0c0.1-1,0.1-2,0.2-3
			c2.9-44.9,189.4,6,189.4,6l2,30.5l0.1,2.2L870.2,1189.7z"/>
		<path class="st4" d="M771.8,679.6v91.7c0,0-8.4,2.2-9.5,8.4c-1.1,6.1-4.1,251.7-58.4,410h-71.8c0,0,2.3-480.8,15.6-512
			L771.8,679.6z"/>
		<g>
			<path class="st2" d="M657,718.6c36.1,0,51.7-26.2,51.9-26.4l-1.7-1c-0.2,0.3-15.7,26.1-51.5,25.5l0,1.9
				C656.1,718.6,656.5,718.6,657,718.6z"/>
		</g>
		<g>
			<path class="st2" d="M838.6,716.2c-18.3-7.6-26.6-21.4-26.7-21.6l1.7-1c0.1,0.2,7.8,13.1,24.9,20.4L838.6,716.2z"/>
		</g>
		<g>
			<g>
				<path class="st3" d="M645.4,1123.4c5.8-38.1,10.6-83.3,13.2-130.4c0.4-7.2,0.8-14.6,1.1-22c0.4-8.2,0.7-16.5,0.9-24.6
					c0.1-2.8-0.7-6-1.4-9.2c-0.7-2.9-1.4-5.9-1.3-8.4c0.8-31,0.1-59.5-0.4-84.5c-0.1-6.6-0.3-13-0.4-19.3c-1-57-1.4-89.3-1.4-89.7
					l0,0c0,0.3-1.4,32.5-0.4,89.6c0.1,6.3,0.3,12.8,0.4,19.3c0.6,25.1,1.2,53.5,0.4,84.4c-0.1,2.7,0.7,5.9,1.4,8.9
					c0.7,3,1.4,6.1,1.4,8.6c-0.3,8.2-0.6,16.4-0.9,24.6c-0.3,7.4-0.7,14.8-1.1,22c-2.6,47.1-6.1,92.7-11.9,130.7L645.4,1123.4z"/>
			</g>
		</g>
		<g>
			<path class="st5" d="M587.8,709.6l0.7,21.1c0,0-20,22.8-0.1,49.6c0,0,9,10.4,13.2,1.1c4.2-9.3,1.4-6.4,7.6-19.3
				c6.2-12.9,1.2-29.6-2.1-35.3l0.9-17L587.8,709.6z"/>
			<g>
				<path class="st6" d="M792.6,383.8c-8.5-20.7-6.2-34-6.2-34l-47.2-32.5c-4.1,40.1-11.2,50.9-10.8,66.7
					C728.3,384.5,806.7,418.3,792.6,383.8z"/>
				<path class="st5" d="M797.6,351.6c0,0-57.5,2.6-58.6-33.2c-1.1-35.8-9.2-59.6,27.4-62.8c36.7-3.2,44.2,10.3,47.5,22.1
					C817.2,289.6,812.5,350,797.6,351.6z"/>
				<path class="st7" d="M739.1,320.9c0,0,4.4-48.8,56.6-47c52.3,1.7,29.7-47.7-15.3-55c0,0,4.7,17.4-23.6,20.2
					C697.6,244.8,733.8,313.1,739.1,320.9z"/>
			</g>
			<path class="st5" d="M1014.9,670.4l3,5.5c0,0,29-9.1,45.4,20c0,0,5.8,12.4-4.4,12.5c-10.2,0.1-6.4-1.3-20.8-0.8
				c-14.3,0.5-28.2-5.3-33.1-14.3l-5.5-10L1014.9,670.4z"/>
			<path class="st8" d="M587,719.3l21.7,0.8c0,0,20.1-43.7,23.5-59c6.4-28.7,10.4-60.8,10.4-60.8l17.6-84.4l0.6-1.3
				c0,0-5.8,59.7-9.4,81.6c-10.3,62.6-9.3,82.6-7.7,89.1c0.7,2.9,1.6,3,1.6,3l146.1-0.1l46.4,0c0,0,7.7,6-1.7-64.2
				c-2.6-19.4,13.3-80.7,17.5-96.6c0.3-1,0.5-1.9,0.7-2.5c0.2-0.8,0.4-1.3,0.4-1.3s7.9,20.5,14.6,33.8c12.5,24.7,39,61.4,39,61.4
				s29,26.1,52.3,44.7c21.1,16.8,38.5,25.8,38.5,25.8l25.5-17.4c0,0-17.6-29.4-28.2-45.1c-9.7-14.3-43.6-58.6-43.6-58.6
				s-41.1-102.4-74.8-152.1c-6.6-9.7-43.4-23.6-85.7-34.6c-3.3,8.6-10.3,14.2-22.1,14.2c-17.1,0-38.4-11.7-39.7-27.3
				c-33,2.6-67.6,12.7-81.6,17.6C601.4,402.8,591.3,572,591.3,572s-2.3,31.6-5.6,42.2C576.4,643.2,587,719.3,587,719.3z"/>
			<path class="st9" d="M643.5,685.3c13.1-6.7,69.4-15.7,69.4-52.7c0-28.8-16.7-57.8-31.7-142.6c-1.2-6.6-9.9-7.7-12.1-1.4
				c-3.1,9.1-6.4,19-9,27.4l0.6-1.3c0,0-5.8,59.7-9.4,81.6C640.9,658.9,641.9,678.9,643.5,685.3z"/>
			<path class="st9" d="M854.4,523.7c0,0,7.9,20.5,14.6,33.8c12.5,24.7,39,61.4,39,61.4s29,26.1,52.3,44.7
				c21.1,16.8,38.5,25.8,38.5,25.8c4-19.5-78.5-76.5-88.7-85.4c-10.1-8.9-36.9-102.5-50.6-107.2
				C849.8,493.4,854.4,523.7,854.4,523.7z"/>
		</g>
	</g>
	<g>
		<g>
			<path class="st7" d="M180.2,637.1c-2.8-12.1,0.7-21.1,6.2-29.7c5.3-8.3,12.8-8.6,20.1-15.6c6.8-6.6,19.4-10.9,29.5-10.9
				c32.2,0,60.1,19.7,53.8,53.2c-2,10.6-0.3,19-8.9,31.4c-10.8,15.5-23.8,28-44.8,28c-11.1,0-20.9-2.6-29.5-10.7
				c-4.7-4.4-11.4-5-15.5-9.8C182.6,663.2,183.2,650.4,180.2,637.1z"/>
			<path class="st6" d="M275,714c0,0-3.4-2.8-14.5-4.4c-7.3-13.1-2.2-32.8-2.2-32.8L225.6,660c2.1,28.9-8.3,48.4-8.3,48.4
				s-7.5,2.5-11.8,3.1l33.2,31.9L275,714z"/>
			<path class="st5" d="M259.4,690.5c0,0-41.1,5-42-24c-0.9-29,16.3-47.7,27.7-47.5c22.8,0.4,26.6,9.6,29.2,19.2
				C276.9,647.9,278.3,688.5,259.4,690.5z"/>
			<g>
				<path class="st2" d="M171.8,1191.6l5.1,18.3h42.8C219.7,1209.9,232.5,1186.5,171.8,1191.6z"/>
				<path class="st2" d="M263.7,1191.6l5.1,18.3h42.8C311.6,1209.9,324.3,1186.5,263.7,1191.6z"/>
				<path class="st3" d="M298.6,909.4l-81.3,7.7c0,0-9.5,142.5,43.9,274.6l45.5-0.9L298.6,909.4z"/>
				<path class="st4" d="M172.5,917.6c0,0-25,98.1-4.7,275.4l55.2,0l26.5-230.1c1-6.8,13.8-16.3,13.8-16.3l0.5-26.3L172.5,917.6z"/>
			</g>
			<path class="st10" d="M248.4,673.8c0,0,0.9,3.6,9.9,2.9c0,0,7.6-0.6,7.3-4.5C265.5,672.2,258.2,669.5,248.4,673.8z"/>
			<path class="st7" d="M255.2,619.3c0,0-35.1,0-27.1,24.1c5.1,15.2-11.8,17.6-11.8,17.6s-11-18.6-8.1-24.4
				C222.2,609,255.2,619.3,255.2,619.3z"/>
			<g>
				<path class="st6" d="M448.5,748.3c-18.6-11.4-25.2-1-32.3,3c-3,1.7-8,1.8-8.2,1.8c-25.8,0.1-56.5,4.8-56.5,4.8
					c-13.8-11.5-55.5-34.3-55.5-34.3l-8.7,31.8c0,0,15.3,9.7,22.5,14c8.3,5,39.1,17.8,39.1,17.8s22.3-5.9,29.6-8.3
					c6-2,20.3-7.4,27.2-10l0,0l0,0c2.4-0.9,3.9-1.5,3.9-1.5l1.3-0.5c1.6-0.6,3.4-0.7,5-0.1c5.9,2.2,14.7,0.5,21.9-3.7
					c8-4.8,6.3-2.8,12.1-6.1C455.8,753.6,448.5,748.3,448.5,748.3z"/>
				<path class="st11" d="M322.7,738.5c-7.1-5.7-29.2-19.3-29.2-19.3s-11.1-6-32.3-9.5c0.2,5.8-2.1,11-12.2,12.4
					c-13.5,1.8-25.5-7.4-31.6-13.7c-15.9,2.3-33.4,7.5-52.5,17.2l5.8,48.1l7,58l-5.1,85.2l0,0.8c0,0,74.3,14.4,126.1-8.2l-3.9-146.2
					l14.7,8.2L322.7,738.5z"/>
				<path class="st12" d="M203.8,914.1c-3.5,4.4-20.8,5.9-31.2,2.8l5.1-85.2l-7-58l6.7-3.1c0,0,29.6,23.7,26.1,42.7
					C200,832.1,208.3,908.5,203.8,914.1z"/>
				<path class="st6" d="M213.3,931.8c-3.7-20.4-22.6-21-22.6-21S160,851,157.3,844.3l21.6-72.9h-36.7c0,0-15.2,52.1-10.3,75
					c0,0,14.1,46.1,49.1,71.1c1.2,3.9,6.6,13.3,15.1,15.9c8.5,2.7,6,2.7,12,4.7C214.2,940.3,213.3,931.8,213.3,931.8z"/>
				<path class="st11" d="M137.4,776.7c0,0,30.8,11.9,35.3,17.8l44.6-86.1c0,0-42.1,4.5-52.5,17.2
					C154.5,738.3,137.4,776.7,137.4,776.7z"/>
			</g>
		</g>
		<g>
			
				<rect x="414.2" y="743.3" transform="matrix(-0.5435 0.8394 -0.8394 -0.5435 1374.8457 812.6048)" class="st11" width="104.4" height="73.8"/>
			
				<rect x="408.1" y="739.3" transform="matrix(-0.5435 0.8394 -0.8394 -0.5435 1361.9691 811.6179)" class="st12" width="104.4" height="73.8"/>
		</g>
	</g>
	<g id="box_donate_2">
		<g>
			<g>
				<path class="st7" d="M1929.8,653.8l-67.4,20.6l-15.4-20.6l-0.1,0.5l-13.1,48l-46.2,169.3l-239.4-99.2l113.9-197.3l-31-2.8
					l-3.4-80.4c0,0,48.6-17.1,128.4,6.7c-0.7,19.3,10.4,37.9,29.3,45.7c18.5,7.7,39,2.8,52.2-10.7c11.2,6.3,23.2,12.7,34.6,21.2
					C1917.8,588.2,1929.8,653.8,1929.8,653.8z"/>
				<path class="st13" d="M1846.9,654.3l-13.1,48l-66.5-3.6c0,0,56.8-52.3,68.3-56.2C1842.2,640.4,1845.4,647.5,1846.9,654.3z"/>
			</g>
			<g>
				<path class="st11" d="M1131,656.4c-19,1-32-28.5-40-28.9c-1.3-0.1-3.8,0.3-7,0.8c7.9,12.9,13.9,28.1,17.2,44.9
					c11.4,56.9-12.6,109.7-53.6,117.9c-39.9,8-81.2-29.2-93.9-83.6c-0.4-1.5-0.7-3.1-1-4.6c-3.3-16.6-3.6-32.8-1.4-47.7
					c0,0,0-0.1,0-0.1c-1.7,0.5-3,0.9-3.8,1.2c-7.2,3.4-7.9,35.7-25.8,42.1c-17.9,6.4-30-28-8.7-54.7c13-16.3,36.1-24.2,52.1-27.9
					c3.3-5.4,7.2-10.3,11.4-14.5c0.2-0.2,0.3-0.3,0.5-0.5c-11.8-6.4-20.7-17.7-23.6-31.9c-1-4.8-1.1-9.6-0.6-14.2c0,0-0.1,0-0.1,0
					c-8.1-2.4-14.6-9.2-16.4-18c-2.6-12.8,5.7-25.3,18.6-27.8c9.3-1.9,18.4,2,23.7,9.1c3.6-1.8,7.4-3.1,11.5-3.9
					c3.6-0.7,7.2-1,10.8-0.9c2.2-8.5,9.1-15.3,18.2-17.2c12.8-2.6,25.3,5.7,27.9,18.6c1.7,8.4-1.3,16.7-7.2,22.1
					c2.4,4.2,4.2,8.9,5.2,14c2.7,13.4-0.6,26.5-8.1,36.7c6.7,2.3,13.2,5.8,19.3,10.2c16.1-3.1,42.3-5.6,61.8,5.1
					C1147.9,619,1150,655.4,1131,656.4z"/>
				<path class="st12" d="M953.7,707.5c-0.4-1.5-0.7-3.1-1-4.6c-3.3-16.6-3.6-32.8-1.4-47.7c2.4-2.7,5.5-4.8,9-3.1
					c7.9,3.7,6.6,41.3,18.6,50C987.8,708.5,965.6,708.5,953.7,707.5z"/>
				<path class="st12" d="M999.3,595.2c-4.5,1.7-14.1,4.7-22.7,6c0.2-0.2,0.3-0.3,0.5-0.5c-11.8-6.4-20.7-17.7-23.6-31.9
					c-1-4.8-1.1-9.6-0.6-14.2c0,0-0.1,0-0.1,0c0.5-0.2,1.1,0.1,1.9,1.2c3,4.2,19.1,38.5,44.7,34.6
					C999.3,590.5,1006,592.7,999.3,595.2z"/>
				<path class="st12" d="M1011.4,516.1c0,0,6-11.2,14.9-8.3c8.9,2.9,10.1,15.7,4.3,19.2C1030.6,527,1022,519.1,1011.4,516.1z"/>
				<path class="st12" d="M969.7,522.6c0,0-12.8-5.9-18.6,0.9c-5.8,6.8,5.8,15.5,5.8,15.5S962.4,527.5,969.7,522.6z"/>
			</g>
			<g>
				<path class="st8" d="M1448.7,682.3l-179.2,56.2l-17.6-100.8l-10.7-61.4l-0.1-0.5l-18.6,12.9l-39.3-43.1c0,0,19.1-32.1,74.5-56
					c8.6,11.1,23.4,16.2,37.5,11.8c13.8-4.3,23-16.6,24-30.2c9.1-1.7,18.8-3.7,29.1-4.3c40.9-2.6,78.1,28.3,78.1,28.3l-27.9,42.8
					l-18.1-4.3L1448.7,682.3z"/>
				<path class="st9" d="M1276.5,633l-24.6,4.7l-10.7-61.4c1.8-3.1,4.4-5.1,7.9-3.4C1257.9,577.2,1276.5,633,1276.5,633z"/>
			</g>
			<g>
				
					<rect x="1331.3" y="606.3" transform="matrix(-0.6373 0.7706 -0.7706 -0.6373 2902.9685 12.1413)" class="st11" width="234.7" height="165.9"/>
				
					<rect x="1318.6" y="595.8" transform="matrix(-0.6373 0.7706 -0.7706 -0.6373 2874.0193 4.7181)" class="st12" width="234.6" height="165.9"/>
			</g>
			<g>
				
					<rect x="1198.6" y="633.5" transform="matrix(0.4563 0.8898 -0.8898 0.4563 1352.9471 -781.4224)" class="st4" width="234.6" height="165.9"/>
				
					<rect x="1183.9" y="641" transform="matrix(0.4563 0.8898 -0.8898 0.4563 1351.6644 -764.2477)" class="st7" width="234.6" height="165.9"/>
			</g>
			<g>
				<path class="st14" d="M1618.3,405.1c0,0,15.9,0.6,23.3-8.1l-24.7-16.9C1616.8,380.1,1611.3,395.8,1618.3,405.1z"/>
				<path class="st14" d="M1532.8,529.9c0,0,6.3,14.6,0.9,24.7l-24.7-16.9C1509,537.6,1521.6,526.8,1532.8,529.9z"/>
				
					<rect x="1500.1" y="450" transform="matrix(0.565 -0.8251 0.8251 0.565 299.9103 1503.0608)" class="st8" width="150.6" height="34.3"/>
				<path class="st14" d="M1584.1,424.1l7.7-11.2c12,1.9,27.9,4.5,37.1,6.5l-8.1,11.9L1584.1,424.1z"/>
				<path class="st14" d="M1563.4,454.4l7.7-11.2c12,1.9,27.9,4.5,37.1,6.5l-8.1,11.9L1563.4,454.4z"/>
				<path class="st14" d="M1543.7,483.2l7.7-11.2c12,1.9,27.9,4.5,37.1,6.5l-8.1,11.9L1543.7,483.2z"/>
				<path class="st14" d="M1523.2,513.1l7.7-11.2c12,1.9,27.9,4.5,37.1,6.5l-8.1,11.9L1523.2,513.1z"/>
			</g>
			<g>
				<path class="st7" d="M1090.7,508.6c0,0,2.8-11.3-2.2-18l-15.9,15.2C1072.5,505.8,1083,512.2,1090.7,508.6z"/>
				<path class="st7" d="M1167.3,588.9c0,0,11.5-2.3,17.9,3.1l-15.9,15.2C1169.2,607.2,1163.3,596.5,1167.3,588.9z"/>
				
					<rect x="1116.1" y="493.5" transform="matrix(0.7238 -0.69 0.69 0.7238 -66.8978 930.3232)" class="st8" width="25.2" height="110.5"/>
				<path class="st7" d="M1099.1,536l-6.9-7.2c3.2-8.3,7.5-19.3,10.3-25.7l7.3,7.6L1099.1,536z"/>
				<path class="st7" d="M1117.7,555.5l-6.9-7.2c3.2-8.3,7.5-19.3,10.3-25.7l7.3,7.6L1117.7,555.5z"/>
				<path class="st7" d="M1135.4,574l-6.9-7.2c3.2-8.3,7.5-19.3,10.3-25.7l7.3,7.6L1135.4,574z"/>
				<path class="st7" d="M1153.7,593.2l-6.9-7.2c3.2-8.3,7.5-19.3,10.3-25.7l7.3,7.6L1153.7,593.2z"/>
			</g>
		</g>
		<g>
			<g>
				
					<rect x="936.5" y="694.5" transform="matrix(-1 -1.224647e-16 1.224647e-16 -1 2497.9788 1904.3884)" class="st15" width="625" height="515.4"/>
				
					<rect x="1249" y="694.5" transform="matrix(-1 -1.224647e-16 1.224647e-16 -1 3122.9985 1904.3884)" class="st8" width="625" height="515.4"/>
				<polygon class="st8" points="936.5,694.5 796,830.1 1108.7,830.1 1249,694.5 				"/>
				<polygon class="st9" points="1249,694.5 1874,694.5 1874,858.4 1249,1209.9 				"/>
				<polygon class="st8" points="1249,694.5 1372.7,830.1 1989.4,830.1 1874,694.5 				"/>
				<polygon class="st8" points="936.8,1079.2 1035.9,1079.2 1027.2,1051.3 1035.9,1031.4 936.8,1031.4 				"/>
			</g>
		</g>
	</g>
	<g id="box_donate_1">
		<g>
			<g>
				
					<rect x="701.5" y="954.8" transform="matrix(-3.009835e-02 0.9995 -0.9995 -3.009835e-02 1757.1627 269.8687)" class="st4" width="92.4" height="65.3"/>
				
					<rect x="695" y="954.6" transform="matrix(-3.009445e-02 0.9995 -0.9995 -3.009445e-02 1750.2701 276.1586)" class="st7" width="92.4" height="65.3"/>
			</g>
			<g>
				
					<rect x="631.2" y="961.5" transform="matrix(-0.5435 0.8394 -0.8394 -0.5435 1880.1042 965.8625)" class="st11" width="92.4" height="65.3"/>
				
					<rect x="625.8" y="958" transform="matrix(-0.5435 0.8394 -0.8394 -0.5435 1868.7148 964.9909)" class="st12" width="92.4" height="65.3"/>
			</g>
			<g>
				<path class="st4" d="M590.2,994c-11.4,0.6-19.2-17.1-24.1-17.4c-0.8,0-2.3,0.2-4.2,0.5c4.7,7.8,8.4,16.9,10.4,27
					c6.9,34.2-7.6,66-32.3,70.9c-24,4.8-48.8-17.5-56.5-50.3c-0.2-0.9-0.4-1.8-0.6-2.8c-2-10-2.2-19.8-0.8-28.7c0,0,0-0.1,0-0.1
					c-1,0.3-1.8,0.5-2.3,0.7c-4.4,2.1-4.7,21.5-15.5,25.3c-10.8,3.8-18.1-16.8-5.2-32.9c7.8-9.8,21.7-14.6,31.3-16.8
					c2-3.3,4.3-6.2,6.9-8.7c0.1-0.1,0.2-0.2,0.3-0.3c-7.1-3.8-12.5-10.7-14.2-19.2c-0.6-2.9-0.7-5.7-0.4-8.5c0,0,0,0-0.1,0
					c-4.9-1.5-8.8-5.5-9.9-10.8c-1.5-7.7,3.5-15.2,11.2-16.7c5.6-1.1,11.1,1.2,14.2,5.5c2.1-1.1,4.5-1.9,6.9-2.3
					c2.2-0.4,4.3-0.6,6.5-0.5c1.3-5.1,5.5-9.2,11-10.3c7.7-1.5,15.2,3.5,16.8,11.2c1,5.1-0.8,10-4.3,13.3c1.5,2.6,2.5,5.4,3.1,8.4
					c1.6,8-0.4,15.9-4.9,22.1c4,1.4,7.9,3.5,11.6,6.1c9.7-1.8,25.5-3.4,37.2,3.1C600.3,971.5,601.6,993.4,590.2,994z"/>
				<path class="st3" d="M483.5,1024.7c-0.2-0.9-0.4-1.8-0.6-2.8c-2-10-2.2-19.8-0.8-28.7c1.4-1.7,3.3-2.9,5.4-1.9
					c4.7,2.2,4,24.9,11.2,30.1C504,1025.3,490.7,1025.4,483.5,1024.7z"/>
				<path class="st3" d="M510.9,957.2c-2.7,1-8.5,2.8-13.7,3.6c0.1-0.1,0.2-0.2,0.3-0.3c-7.1-3.8-12.5-10.7-14.2-19.2
					c-0.6-2.9-0.7-5.7-0.4-8.5c0,0,0,0-0.1,0c0.3-0.1,0.6,0.1,1.1,0.7c1.8,2.6,11.5,23.2,26.9,20.8
					C510.9,954.4,514.9,955.7,510.9,957.2z"/>
				<path class="st3" d="M518.2,909.6c0,0,3.6-6.7,8.9-5c5.3,1.7,6.1,9.4,2.6,11.6C529.8,916.2,524.6,911.4,518.2,909.6z"/>
				<path class="st3" d="M493.1,913.5c0,0-7.7-3.5-11.2,0.6c-3.5,4.1,3.5,9.3,3.5,9.3S488.8,916.5,493.1,913.5z"/>
			</g>
		</g>
		<g>
			<g>
				
					<rect x="403.6" y="986.4" transform="matrix(-1 -1.224647e-16 1.224647e-16 -1 1078.2983 2196.3738)" class="st16" width="271" height="223.5"/>
				
					<rect x="539.1" y="986.4" transform="matrix(-1 -1.224647e-16 1.224647e-16 -1 1349.347 2196.3738)" class="st17" width="271" height="223.5"/>
				<polygon class="st17" points="403.6,986.4 342.7,1045.2 478.3,1045.2 539.1,986.4 				"/>
				<polygon class="st18" points="539.1,986.4 810.9,986.4 810.9,1057.5 539.1,1209.9 				"/>
				<polygon class="st17" points="539.1,986.4 592.8,1045.2 860.2,1045.2 810.2,986.4 				"/>
			</g>
		</g>
	</g>
	<g id="box_donate_3">
		<g>
			<rect x="1812.9" y="992.9" class="st8" width="225" height="217.1"/>
			<rect x="1700.4" y="992.9" class="st15" width="225" height="217.1"/>
			<polygon class="st8" points="1857.2,992.9 1857.2,1028.5 1867.2,1025.4 1874.4,1028.5 1874.4,992.9 			"/>
			<polygon class="st8" points="1745.1,1210 1745.1,1174.4 1735.1,1177.5 1727.9,1174.4 1727.9,1210 			"/>
		</g>
	</g>
</g>
</svg>
