<?xml version="1.0" encoding="utf-8"?>
<!-- Generator: Adobe Illustrator 23.0.1, SVG Export Plug-In . SVG Version: 6.00 Build 0)  -->
<svg version="1.1" id="Layer_1" xmlns="http://www.w3.org/2000/svg" xmlns:xlink="http://www.w3.org/1999/xlink" x="0px" y="0px"
	 viewBox="0 0 550.6 381.2" style="enable-background:new 0 0 550.6 381.2;" xml:space="preserve">
<style type="text/css">
	.st0{fill:#039AAE;}
	.st1{fill:url(#SVGID_1_);}
	.st2{fill:#D8DBD9;}
	.st3{opacity:0.5;fill:#D8DBD9;}
	.st4{clip-path:url(#SVGID_3_);fill:#D8DBD9;}
	.st5{clip-path:url(#SVGID_3_);fill:#FACC4D;}
	.st6{fill:#FC6551;}
	.st7{fill:#FBFBFB;}
	.st8{opacity:0.15;fill:#818181;}
	.st9{fill:#FACB9A;}
	.st10{fill:#653605;}
	.st11{fill:#E6E2DC;}
	.st12{fill:#EBCACA;}
	.st13{fill:#F2DBB5;}
	.st14{fill:#5BB780;}
	.st15{fill:#FACC4D;}
	.st16{fill:#F0E4BE;}
	.st17{fill:#CCE8E2;}
	.st18{fill:#709F95;}
	.st19{fill:#B2CFCD;}
	.st20{fill:#A4487F;}
	.st21{opacity:0.5;fill:#B2CFCD;}
	.st22{fill:#A642DB;}
	.st23{opacity:0.5;fill:#EBCACA;}
	.st24{fill:#242725;}
	.st25{opacity:0.5;fill:#CCE8E2;}
	.st26{fill:#BCE9EB;}
	.st27{fill:#FFFF6D;}
	.st28{fill:#FCE5CC;}
	.st29{opacity:0.4;fill:#D8DBD9;}
	.st30{fill:#824D14;}
	.st31{opacity:0.5;fill:#039AAE;}
	.st32{opacity:0.25;fill:#FBFBFB;}
	.st33{opacity:0.5;fill:#D8B06D;}
	.st34{opacity:0.2;fill:#D8DBD9;}
	.st35{opacity:0.35;fill:#D8DBD9;}
	.st36{opacity:0.5;fill:#FBFBFB;}
	.st37{clip-path:url(#SVGID_4_);fill:#D8DBD9;}
	.st38{clip-path:url(#SVGID_4_);fill:#FACC4D;}
</style>
<path class="st0" d="M550.3,124.2v235.5c0,11.8-9.6,21.4-21.4,21.4H51.2L167.1,73c8.9-23.6,34-36.7,58.5-30.6L550.3,124.2z"/>
<g>
	<g>
		<path class="st2" d="M483.7,86.3v112.6c0,1.2-0.5,2-1.2,2.4l-6.2,3.4l-3.3-7.4l-57-32.9c-2.5-1.5-4.6-4.7-4.6-7.3V57.3l-5.2-11.7
			l6.2-3.4c0.8-0.6,2.1-0.5,3.6,0.4L479,79c0.2,0.1,0.4,0.2,0.6,0.4C481.9,81,483.7,83.9,483.7,86.3z"/>
		<path class="st3" d="M471.2,84.2l0,0.2l-12.1,6.2c0,0-29-18.8-47.9-31.1v-2.1l-5.2-11.7l6.2-3.4c0.8-0.6,2.1-0.5,3.6,0.4L479,79
			c0.2,0.1,0.4,0.2,0.6,0.4L471.2,84.2z"/>
		<path class="st2" d="M472.8,204.3l-63.1-36.4c-2.6-1.5-4.6-4.7-4.6-7.3V47.9c0-2.6,2.1-3.4,4.6-2l63.1,36.4
			c2.6,1.5,4.6,4.7,4.6,7.3v112.6C477.5,204.9,475.4,205.8,472.8,204.3z"/>
		<path class="st0" d="M407.3,147.2V51.8c0-2.6,2.1-3.4,4.6-2l58.8,33.9c2.6,1.5,4.6,4.7,4.6,7.3v95.4c0,2.6-2.1,3.4-4.6,2
			l-58.8-33.9C409.3,153,407.3,149.7,407.3,147.2z"/>
		<path class="st3" d="M445.9,185.1l-9.3-5.4c-2.3-1.3-4.2-4.3-4.2-6.6c0-2.3,1.9-3.1,4.2-1.8l9.3,5.4c2.3,1.3,4.2,4.3,4.2,6.6
			C450.1,185.6,448.3,186.4,445.9,185.1z"/>
		<path class="st2" d="M472.8,204.3l-63.1-36.4c-2.6-1.5-4.6-4.7-4.6-7.3V47.9c0-2.6,2.1-3.4,4.6-2l63.1,36.4
			c2.6,1.5,4.6,4.7,4.6,7.3v112.6C477.5,204.9,475.4,205.8,472.8,204.3z"/>
	</g>
	<polygon class="st2" points="469.8,147.8 412.9,115 412.9,119.9 469.7,152.8 	"/>
	<g>
		<defs>
			<polygon id="SVGID_5_" points="469.8,147.8 412.9,115 363.7,136.8 411.9,181.3 			"/>
		</defs>
		<clipPath id="SVGID_1_">
			<use xlink:href="#SVGID_5_"  style="overflow:visible;"/>
		</clipPath>
		<path style="clip-path:url(#SVGID_1_);fill:#D8DBD9;" d="M381.8,145v-1.1l0.3,0.2c0.2-0.3,0.5-0.6,0.9-0.8l63.4-36.6
			c1.6-0.9,4.3-0.9,5.9,0l36.8,21.2c0.4,0.2,0.7,0.5,0.9,0.8l0.3-0.2v1.1c0,0.6-0.4,1.2-1.2,1.7L425.8,168c-1.6,0.9-4.3,0.9-5.9,0
			l-36.8-21.2C382.3,146.3,381.8,145.7,381.8,145z"/>
		<path style="clip-path:url(#SVGID_1_);fill:#D8DBD9;" d="M426.9,159.6c-0.5,0.4-1.1,7.3-1.1,7.3v1.1l63.3-36.6
			c0.8-0.5,1.2-1.1,1.2-1.7v-1.1l-0.3,0.2c-0.2-0.3-0.5-0.6-0.9-0.8l-27.9-16.1c-9.7,7.1-22.9,16.8-22.9,16.8l-14.2,12.1
			L426.9,159.6z"/>
		<path style="clip-path:url(#SVGID_1_);fill:#FACC4D;" d="M489.1,130.3l-63.4,36.6c-1.6,0.9-4.3,0.9-5.9,0l-36.8-21.2
			c-1.6-0.9-1.6-2.5,0-3.4l63.4-36.6c1.6-0.9,4.3-0.9,5.9,0l36.8,21.2C490.8,127.9,490.8,129.4,489.1,130.3z"/>
	</g>
	<polygon class="st6" points="465.1,128.2 417.4,100.7 417.4,81.6 465.1,109.1 	"/>
</g>
<g>
	<polygon class="st8" points="346.8,217.7 425.7,263.2 349.4,307.2 270.6,261.7 	"/>
	<polygon class="st9" points="368.5,186.2 368.5,230.2 292.2,274.2 292.2,230.2 	"/>
	<polygon class="st3" points="368.5,186.2 368.5,230.2 292.2,274.2 292.2,230.2 	"/>
	<polygon class="st9" points="425.7,219.2 368.5,186.1 368.5,230.2 425.7,263.2 	"/>
	<polygon class="st2" points="425.7,219.2 368.5,186.1 368.5,230.2 425.7,263.2 	"/>
	<path class="st10" d="M411.7,181.3c0,0-4-0.3-8.8,1.8c-0.4,0.2-0.8,0.4-1.2,0.6c0,0-1.8-7.6,3.9-8.3c1.5-0.2,2.6,0.1,3.5,0.7
		C411.6,177.6,411.7,181.3,411.7,181.3z"/>
	<path class="st11" d="M402.9,183c-0.4,0.2-0.8,0.4-1.2,0.6c0,0-1.8-7.6,3.9-8.3c1.5-0.2,2.6,0.1,3.5,0.7
		C402.9,175.9,402.6,180.7,402.9,183z"/>
	<path class="st6" d="M389.3,202.8c0,11.5-9.3,20.8-20.8,20.8c-4.6,0-8.9-1.5-12.4-4.1c2.4,1.6,5.8,1.7,9.9,0.1
		c8.7-3.5,16.9-13.8,18.3-23c0.6-4.3-0.3-7.6-2.3-9.6C386.4,190.8,389.3,196.4,389.3,202.8z"/>
	<path class="st9" d="M347.7,214.1c0,0-1.2-7.9-3.5-13.9l2.5,3l8.1,9.6l4.7-2.9c0,0-4.7-5.5-8.8-10.1c-2.2-2.4-4.2-4.6-5.5-5.6
		c-0.2-0.1-0.3-0.3-0.4-0.3c-0.1-0.1-0.3-0.2-0.4-0.3c-0.1,0-0.1-0.1-0.2-0.1c-1.8-0.5-10.8,2.3-11.1,2.4c0,0-0.2,0.5-0.7,1
		c-0.6,0.6-1.5,1.4-2.9,1.6c-0.4,0.1-0.8,0.1-1.2,0.1c0,0-8,7-8.2,9.8c-0.1,1.2,1.5,5.3,3.4,9.8c2.6,6.2,5.8,13.1,5.8,13.1l1.4-0.7
		l1.7-0.9l0.6-0.3c-0.2,3.1,0,6.5,0.9,9l27.5-15.5C361.3,222.9,354,215.4,347.7,214.1z M333.1,227.2l-0.4-0.9l-4.5-10.3l-2.4-5.4
		c0.1,0.1,0.1,0.2,0.1,0.2c0,0.1,0.1,0.1,0.1,0.2c0.1,0.2,0.3,0.6,0.5,0.9c0.1,0.2,0.2,0.4,0.4,0.6c1.1,1.8,2.8,4.4,4.8,6.4
		c0.4,0.4,0.9,0.9,1.3,1.2c0.3,0.3,0.6,0.5,0.9,0.7C334.1,220.8,333.4,223.6,333.1,227.2z"/>
	<path class="st9" d="M333.2,195.9c0,0-0.2,0.5-0.7,1c-0.6,0.6-1.5,1.4-2.9,1.6c-0.4,0.1-0.8,0.1-1.2,0.1l-1.2-3.3l1-0.5l3.2-1.7
		L333.2,195.9z"/>
	<path class="st6" d="M361.3,222.9l-27.5,15.5c-0.9-2.5-1.1-5.9-0.9-9l0.2-2.2c0.3-3.6,0.9-6.3,0.9-6.3c-0.3-0.2-0.6-0.4-0.9-0.7
		c-0.4-0.4-0.9-0.8-1.3-1.2c-2-2.1-3.8-4.7-4.8-6.4c-0.1-0.2-0.3-0.4-0.4-0.6c-0.2-0.4-0.4-0.7-0.5-0.9c0-0.1-0.1-0.1-0.1-0.2
		c0-0.1-0.1-0.1-0.1-0.2c0,0,2.3,5.4,2.3,5.4l-3,1.5l-1.8,0.9c-1.9-4.5-3.5-8.7-3.4-9.8c0.2-2.8,8.2-9.8,8.2-9.8
		c0.5,0,0.9,0,1.2-0.1c1.4-0.2,2.4-1,2.9-1.6c0.5-0.5,0.7-1,0.7-1c0.3-0.1,9.3-2.9,11.1-2.4c0.1,0,0.1,0,0.2,0.1
		c0.1,0.1,0.2,0.1,0.4,0.3c0.1,0.1,0.3,0.2,0.4,0.3c1.2,1,3.3,3.2,5.5,5.6c-0.8,1-2.4,2.2-3.3,2.9c-0.3,0.2-0.5,0.4-0.6,0.5l-2.5-3
		c2.3,5.9,3.5,13.9,3.5,13.9C354,215.4,361.3,222.9,361.3,222.9z"/>
	<path class="st12" d="M338.9,235l-5,3.4c-0.9-2.5-1.1-5.9-0.9-9l0.2-2.2c0.3-3.6,0.9-6.3,0.9-6.3c-4-2.8-7.6-9.3-8.2-10.3
		c-0.1-0.1,10.2,10.1,10.2,10.1C336,224,338.9,235,338.9,235z"/>
	<path class="st3" d="M358.4,210.3c-0.3,0.2-3.5,2.3-3.6,2.4l-10.5-12.5L358.4,210.3z"/>
	<path class="st12" d="M330.7,230.6l-1.4,0.7c0,0-3.2-6.8-5.8-13.1c-1.9-4.5-3.5-8.7-3.4-9.8c0.2-2.8,8.2-9.8,8.2-9.8
		c0.5,0,0.9,0,1.2-0.1c0,0-6.9,7.5-7.4,9.5c-0.2,0.7,1.2,4.6,3.1,9.3C327,221.7,329,226.8,330.7,230.6z"/>
	<path class="st13" d="M329.6,198.6c-0.4,0.1-0.8,0.1-1.2,0.1l-1.2-3.3l1-0.5L329.6,198.6z"/>
	<path class="st14" d="M380.9,186.1c-2.4-1.6-5.8-1.7-9.9-0.1c-6.3,2.5-12.2,8.5-15.6,15.1c0.7-9.4,7.8-17,16.9-18.7
		C375.5,182.9,378.4,184.3,380.9,186.1z"/>
	<path class="st15" d="M384.3,196.5c-1.4,9.3-9.5,19.6-18.2,23c-0.5,0.2-1,0.4-1.5,0.5c-0.3-0.2-0.6-0.4-0.9-0.6
		c-0.4-0.2-0.7-0.5-1.1-0.8c-4.5-3.8-7.3-9.5-7.3-15.8c0-0.6,0-1.1,0.1-1.7c3.4-6.6,9.3-12.6,15.6-15.1c4-1.6,7.5-1.4,9.9,0.1
		c0.4,0.2,0.7,0.5,1.1,0.8C384,188.9,384.9,192.2,384.3,196.5z"/>
	<path class="st15" d="M364.6,220.1c-3.4,1-6.3,0.7-8.4-0.6c-0.4-0.2-0.7-0.5-1.1-0.8c-2.1-2-3-5.3-2.4-9.6c0.4-2.6,1.3-5.3,2.7-7.9
		c0,0.6-0.1,1.1-0.1,1.7c0,6.3,2.8,12,7.3,15.8c0.3,0.3,0.7,0.6,1.1,0.8C364,219.7,364.3,219.9,364.6,220.1z"/>
	<path class="st16" d="M364.6,220.1c-3.4,1-6.3,0.7-8.4-0.6c-0.4-0.2-0.7-0.5-1.1-0.8c-2.1-2-3-5.3-2.4-9.6c0.4-2.6,1.3-5.3,2.7-7.9
		c0,0.6-0.1,1.1-0.1,1.7c0,6.3,2.8,12,7.3,15.8c0.3,0.3,0.7,0.6,1.1,0.8C364,219.7,364.3,219.9,364.6,220.1z"/>
	<path class="st3" d="M372.3,223.2c-1.2,0.2-2.5,0.3-3.8,0.3c-4.6,0-8.9-1.5-12.4-4.1c2.1,1.4,5,1.7,8.4,0.6
		C366.9,221.6,369.5,222.7,372.3,223.2z"/>
	<path class="st14" d="M372.3,182.4c-9.1,1.7-16.1,9.3-16.9,18.7c-1.3,2.6-2.3,5.3-2.7,7.9c-0.6,4.3,0.3,7.6,2.4,9.6
		c-4.5-3.8-7.3-9.5-7.3-15.8c0-11.5,9.3-20.8,20.8-20.8c0.6,0,1.2,0,1.7,0.1c0.2,0,0.3,0,0.5,0c0.2,0,0.4,0.1,0.6,0.1
		C371.6,182.3,371.9,182.3,372.3,182.4z"/>
	<path class="st17" d="M372.3,182.4c-9.1,1.7-16.1,9.3-16.9,18.7c-1.3,2.6-2.3,5.3-2.7,7.9c-0.6,4.3,0.3,7.6,2.4,9.6
		c-4.5-3.8-7.3-9.5-7.3-15.8c0-11.5,9.3-20.8,20.8-20.8c0.6,0,1.2,0,1.7,0.1c0.2,0,0.3,0,0.5,0c0.2,0,0.4,0.1,0.6,0.1
		C371.6,182.3,371.9,182.3,372.3,182.4z"/>
	<path class="st10" d="M385.6,222.6c-3.6,2.7-10,5-11.7,2.1c-0.1-0.2-0.2-0.3-0.2-0.5c-0.8-2.7,4.6-4.3,6.5-5.8
		c2.1-1.6,4.4-7.5,10.1-13.3c5.7-5.8,8.4-3,8.4-3c0.2,0.3,0.4,0.7,0.5,1.1C400.3,208.8,389,220.1,385.6,222.6z"/>
	<path class="st11" d="M399.2,203.3c-1.8,0.4-5.1,1.7-8.7,6.2c-5.5,6.9-8,13.1-13.2,14.2c-1.3,0.3-2.5,0.4-3.6,0.5
		c-0.8-2.7,4.6-4.3,6.5-5.8c2.1-1.6,4.4-7.5,10.1-13.3c5.7-5.8,8.4-3,8.4-3C398.9,202.5,399.1,202.9,399.2,203.3z"/>
	<path class="st10" d="M419.4,222.8l-5.3,16.3l-17.1,6.4l-8.6-15.6l-2.7-5c0,0,1.6-4.7,5.8-14.3c4.2-9.6,10.2-8.1,10.2-8.1
		s0.7,0.2,2.1,0.7c2.1,0.7,5.5,2,10,4.1C420.9,210.8,419.4,222.8,419.4,222.8z"/>
	<path class="st11" d="M403.7,203.3c-9.8,5.2-13.8,18.2-15.3,26.7l-2.7-5c0,0,1.6-4.7,5.8-14.3c4.2-9.6,10.2-8.1,10.2-8.1
		S402.3,202.8,403.7,203.3z"/>
	<path class="st18" d="M295.6,230.2l12.6-7.3l12.6-7.3l3.1,1.8l3.1,1.8l-12.6,7.3l-12.6,7.3l-0.6-0.2
		C299.1,232.8,297.2,231.7,295.6,230.2L295.6,230.2z"/>
	<path class="st2" d="M301.3,232.9c-1.7-0.5-3.2-1.4-4.6-2.6l24.7-14.3l4.8,2.8L301.7,233L301.3,232.9z"/>
	<path class="st18" d="M295.6,230.2v3.4v3.4h3.1h3.1v-1.7v-1.7l-0.6-0.2C299.1,232.8,297.2,231.7,295.6,230.2L295.6,230.2z"/>
	<path class="st19" d="M295.6,230.2v3.4v3.4h3.1h3.1v-1.7v-1.7l-0.6-0.2C299.1,232.8,297.2,231.7,295.6,230.2L295.6,230.2z"/>
	<polygon class="st18" points="327,219.2 327,253 301.8,246.7 301.8,233.7 	"/>
	<path class="st14" d="M305.7,235.8l11.1-6.4l11.1-6.4l2.7,1.6l2.7,1.6l-11.1,6.4l-11.1,6.4l-0.5-0.2
		C308.7,238.2,307,237.2,305.7,235.8L305.7,235.8z"/>
	<path class="st2" d="M310.7,238.2c-1.5-0.5-2.9-1.3-4-2.3l21.8-12.6l4.2,2.5L311,238.3L310.7,238.2z"/>
	<path class="st14" d="M305.7,235.8v3v3h2.7h2.7v-1.5V239l-0.5-0.2C308.7,238.2,307,237.2,305.7,235.8L305.7,235.8z"/>
	<path class="st17" d="M305.7,235.8v3v3h2.7h2.7v-1.5V239l-0.5-0.2C308.7,238.2,307,237.2,305.7,235.8L305.7,235.8z"/>
	<polygon class="st14" points="333.3,226.1 333.3,256 311.1,250.4 311.1,239 	"/>
	<polygon class="st20" points="378,219.3 397.1,230.2 368.5,246.7 350.1,235.2 	"/>
	<polygon class="st18" points="378,219.3 397.1,230.2 368.5,246.7 350.1,235.2 	"/>
	<polygon class="st21" points="378,219.3 397.1,230.2 368.5,246.7 350.1,235.2 	"/>
	<polygon class="st22" points="378,213.8 378,219.3 363.7,227.6 354.3,233 354.3,215.2 372.2,204.9 	"/>
	<polygon class="st9" points="349.4,263.2 292.2,230.2 292.2,274.2 349.4,307.2 	"/>
	<polygon class="st13" points="349.4,263.2 292.2,230.2 292.2,274.2 349.4,307.2 	"/>
	<rect x="335.1" y="227.4" transform="matrix(0.5 -0.8661 0.8661 0.5 -34.1479 417.708)" class="st6" width="19.1" height="22"/>
	<polygon class="st6" points="349.4,252.2 349.4,263.2 330.4,252.2 330.4,241.2 	"/>
	<rect x="335.1" y="227.4" transform="matrix(0.5 -0.8661 0.8661 0.5 -34.1479 417.708)" class="st12" width="19.1" height="22"/>
	<polygon class="st12" points="349.4,252.2 349.4,263.2 330.4,252.2 330.4,241.2 	"/>
	<polygon class="st18" points="373.4,226.1 373.4,243.9 354.3,232.9 354.3,215.1 	"/>
	<polygon class="st19" points="373.3,226 373.3,243.9 354.3,232.8 354.3,215 	"/>
	<polygon class="st6" points="358.9,235.7 339.9,224.7 349.4,219.2 368.5,230.2 	"/>
	<polygon class="st23" points="358.9,235.7 339.9,224.7 349.4,219.2 368.5,230.2 	"/>
	<polygon class="st9" points="363.8,232.3 344.8,221.3 354.3,215.8 373.4,226.8 	"/>
	<path class="st6" d="M354.3,260.4l9.2-5.3l0.2-2.7l-3.3-1.3c0,0-6,3.5-5.9,3.5c0.1,0-1.9,3.1-1.9,3.1l0.1,1.3L354.3,260.4z"/>
	<path class="st12" d="M354.3,260.4l9.2-5.3l0.2-2.7l-3.3-1.3c0,0-6,3.5-5.9,3.5c0.1,0-1.9,3.1-1.9,3.1l0.1,1.3L354.3,260.4z"/>
	<path class="st6" d="M368.5,230.2l0,22l-4.9,2.9c-0.3-1.5-1.3-2.4-2.8-2.4c-0.7,0-1.5,0.2-2.3,0.7c-2.3,1.3-4.1,4.2-4.1,6.6
		c0,0.1,0,0.3,0,0.4l-4.9,2.8v-11l9.5-16.5L368.5,230.2z"/>
	<polygon class="st0" points="352.3,250.5 360.2,236.9 366.8,233.1 366.8,242.2 	"/>
	<path class="st24" d="M362.6,255.8c0,2-1.6,4.6-3.6,5.7c-2,1.2-3.6,0.5-3.6-1.5c0-2,1.6-4.6,3.6-5.7
		C361,253.1,362.6,253.8,362.6,255.8z"/>
	<polygon class="st18" points="344.8,220.7 344.8,221.3 363.8,232.3 363.8,231.7 	"/>
	<polygon class="st19" points="344.8,220.7 344.8,221.3 363.8,232.3 363.8,231.7 	"/>
	<polygon class="st18" points="373.4,226.2 373.4,226.8 363.8,232.3 363.8,231.7 	"/>
	<polygon class="st18" points="355.3,215.8 373.2,205.5 372.2,204.9 354.3,215.2 	"/>
	<polygon class="st21" points="355.3,215.8 373.2,205.5 372.2,204.9 354.3,215.2 	"/>
	<polygon class="st18" points="373.2,205.5 355.3,215.8 361.1,224.6 361.1,230.2 379,219.9 379,214.3 	"/>
	<polygon class="st18" points="396.1,225.2 378,214.9 379,214.3 397.1,224.7 	"/>
	<polygon class="st21" points="396.1,225.2 378,214.9 379,214.3 397.1,224.7 	"/>
	<polygon class="st18" points="397.1,231.4 378,220.5 378,214.9 397.1,225.8 	"/>
	<polygon class="st19" points="397.1,231.4 378,220.5 378,214.9 397.1,225.8 	"/>
	<polygon class="st18" points="397.1,224.7 397.1,230.2 382.8,238.5 373.4,243.9 373.4,226.2 391.2,215.9 	"/>
	<polygon class="st18" points="373.4,226.2 391.2,215.9 390.2,215.3 372.4,225.6 	"/>
	<polygon class="st21" points="373.4,226.2 391.2,215.9 390.2,215.3 372.4,225.6 	"/>
	<polygon class="st18" points="363.8,231.7 344.8,220.7 355.2,214.7 374.2,225.7 	"/>
	<polygon class="st21" points="363.8,231.7 344.8,220.7 355.2,214.7 374.2,225.7 	"/>
	<path class="st10" d="M424.4,194.2c0,7.8-6.3,14.1-14.1,14.1c-7.8,0-14.1-6.3-14.1-14.1c0-7.8,6.3-14.1,14.1-14.1
		C418.1,180,424.4,186.3,424.4,194.2z"/>
	<path class="st11" d="M411.9,208.2c-0.5,0.1-1.1,0.1-1.6,0.1c-7.8,0-14.1-6.3-14.1-14.1c0-7.8,6.3-14.1,14.1-14.1
		c0.5,0,1.1,0,1.6,0.1c-7,0.8-12.5,6.8-12.5,14C399.3,201.4,404.8,207.4,411.9,208.2z"/>
	<path class="st15" d="M405.7,198.8c0,2.4-2,3.3-4.4,1.9c-2.4-1.4-4.4-4.5-4.4-6.9c0-2.4,2-3.3,4.4-1.9
		C403.7,193.3,405.7,196.4,405.7,198.8z"/>
	<path class="st24" d="M403.9,194.8c0,1.2-0.9,1.6-2.1,0.9c-1.2-0.7-2.1-2.2-2.1-3.3c0-1.2,0.9-1.6,2.1-0.9
		C403,192.1,403.9,193.6,403.9,194.8z"/>
	<path class="st24" d="M411.8,190.9c0,0.9-0.7,2.1-1.6,2.6c-0.9,0.5-1.6,0.2-1.6-0.7c0-0.9,0.7-2.1,1.6-2.6
		C411,189.7,411.8,190,411.8,190.9z"/>
	<path class="st24" d="M402.9,186.7c0,0.9-0.7,2.1-1.6,2.6c-0.9,0.5-1.6,0.2-1.6-0.7c0-0.9,0.7-2.1,1.6-2.6
		C402.1,185.5,402.9,185.8,402.9,186.7z"/>
	<path class="st10" d="M427,189.4c-0.5,3.4-4.4,4.8-5.3,5.1c-0.1,0-0.2,0.1-0.2,0.1c0-0.9-0.1-1.7-0.2-2.5c-0.4-2.6-1.2-4.7-1.8-6
		c-0.4-0.9-0.7-1.4-0.7-1.4s6.7-3,8.1,2.5C427.1,188,427.1,188.7,427,189.4z"/>
	<path class="st9" d="M333.5,181.3c2.1,4.6,1,11.5-3.6,13.6c-4.6,2.1-11.1-1.4-13.2-6c-2.1-4.6,0-10.1,4.6-12.2
		C326,174.6,331.4,176.7,333.5,181.3z"/>
	<path class="st13" d="M328.1,195.5c-4.4,0.7-9.5-2.5-11.3-6.5c-2.1-4.6,0-10.1,4.6-12.2c1.6-0.7,3.4-1,5-0.7
		c-0.9,0.1-1.5,0.9-2.3,1.3c-4.6,2.1-7,7-4.9,11.7C320.7,192.3,324.4,195,328.1,195.5z"/>
	<path class="st15" d="M338.4,190.6c-0.2,0.2-0.5,0.4-0.8,0.4c-0.4,0.1-1,0.1-1.4-0.1c-0.7-0.3-1.2-1-1.5-1.7
		c-0.1,0.3-0.6,0.4-0.9,0.1c-0.3-0.2-0.3-0.6-0.4-0.9c-0.1-0.9,0.2-1.9,0.6-2.7c-0.9-0.6-1.5-1.9-1.2-3c-1.2-0.2-2-1.5-1.8-2.7
		c-1.1-0.6-2-1.7-2.4-2.9c0,0.1,0,0.1-0.1,0.2c-0.2,0.4-0.7,0.7-1.2,0.7c-0.6,0-1.1-0.4-1.2-1c-0.2,1-1.1,1.9-2.1,2.1
		c-1,0.2-2.1-0.1-2.8-0.9c-0.5,1.4-1.9,2.3-3.3,2.2c0.1,1.3-0.4,2.5-1.3,3.4c0.8,0.8,1.1,2.2,0.5,3.3c1.2,0.2,1.9,1.9,1.1,2.9
		c0.5-0.2,1.1,0,1.5,0.3c0.4,0.4,0.5,1,0.2,1.5c0.4-0.3,1-0.3,1.4-0.1c0.4,0.3,0.6,0.8,0.5,1.3c0.7-0.5,1.1,0,1.5,0.5
		c0.2,0.3,0.7,2.1,0.8,2.1c0.5,0.3,0.7,1,0.4,1.5c-0.2,0.5-0.9,0.8-1.4,0.6c0.3,0.4,0.3,0.9,0,1.3c-0.1,0.2-0.3,0.4-0.6,0.5
		c-0.7,0.3-1.6-0.2-1.7-0.9c-0.8,0.7-2.1,0.6-2.7-0.2c-0.7-0.8-0.6-2.1,0.1-2.7c-0.6,0.2-1.4,0-1.8-0.6c-0.4-0.6-0.3-1.4,0.1-1.9
		c-1,0.6-2.6-0.2-2.7-1.4c-0.8,0.3-1.8-0.2-2.2-0.9c-0.4-0.8,0-1.8,0.7-2.2c-0.9-0.1-1.6-0.7-1.8-1.6c-0.2-0.8,0.2-1.8,0.9-2.3
		c-0.9-0.7-1.4-1.9-1.2-3.1c0.3-1.1,1.2-2.1,2.4-2.3c-1-1.1-0.8-2.8-0.3-4.1c0.4-0.9,1-1.9,1.9-2.3c0.9-0.4,2.2-0.2,2.6,0.7
		c-0.1-0.9,0.4-2,1.3-2.3c0.9-0.4,2-0.1,2.6,0.7c0.4-0.9,1.7-1.3,2.6-0.7c-0.1-1.4,1.4-2.7,2.8-2.4c0.6,0.1,1,0.5,1.3,0.9
		c0.5,0.7,0.6,1.6,0.2,2.4c0.7-0.8,2-1.1,3-0.6c1,0.5,1.6,1.6,1.4,2.7c0.6-0.3,1.2-0.7,1.9-0.6c0.7,0.1,1.2,0.9,0.8,1.5
		c1.2,0.6,1.8,2.3,1.2,3.5c1.1,0,2.1,0.7,2.5,1.7c0.3,1,0,2.2-0.9,2.9c1.4,1.3,1.6,3.7,0.5,5.3C338.8,188.9,338.9,190,338.4,190.6z"
		/>
	<path class="st16" d="M327.7,169.8c-1.3,0.1-2.9,0.6-3,2.1c0,0-6.1,0.1-8,4.9c0,0-2.8,0-1.9,2.6c0,0-3.4,2.6-1.1,5.5
		c0,0-1.7,1.7,0.2,2.8c0,0-0.9,1.2,0.2,2.5c1.1,1.3,2.4,0.8,2.6,0.7c0.2-0.2-0.8,1.2,0.8,1.8c0,0-0.6,1.8,1.4,2.2c0,0-0.3,3.5,2.2,3
		c0,0,1.1,1.1,2.3,1.2c-0.1,0.2-0.3,0.4-0.6,0.5c-0.7,0.3-1.6-0.2-1.7-0.9c-0.8,0.7-2.1,0.6-2.7-0.2c-0.7-0.8-0.6-2.1,0.1-2.7
		c-0.6,0.2-1.4,0-1.8-0.6c-0.4-0.6-0.3-1.4,0.1-1.9c-1,0.6-2.6-0.2-2.7-1.4c-0.8,0.3-1.8-0.2-2.2-0.9c-0.4-0.8,0-1.8,0.7-2.2
		c-0.9-0.1-1.6-0.7-1.8-1.6c-0.2-0.8,0.2-1.8,0.9-2.3c-0.9-0.7-1.4-1.9-1.2-3.1c0.3-1.1,1.2-2.1,2.4-2.3c-1-1.1-0.8-2.8-0.3-4.1
		c0.4-0.9,1-1.9,1.9-2.3c0.9-0.4,2.2-0.2,2.6,0.7c-0.1-0.9,0.4-2,1.3-2.3c0.9-0.4,2-0.1,2.6,0.7c0.4-0.9,1.7-1.3,2.6-0.7
		c-0.1-1.4,1.4-2.7,2.8-2.4C326.9,169,327.4,169.4,327.7,169.8z"/>
	<path class="st6" d="M320.2,176.8l-5.6-3.2v4.5c-1.1,0-2,0.9-2,2c0,0.4,0.1,0.7,0.3,1l-3.8,2.2l5.6,3.2V182c1.1,0,2-0.9,2-2
		c0-0.4-0.1-0.7-0.3-1L320.2,176.8z"/>
	<path class="st11" d="M427,189.4c-1.4-4-5.5-3.8-7.6-3.3c-0.4-0.9-0.7-1.4-0.7-1.4s6.7-3,8.1,2.5C427.1,188,427.1,188.7,427,189.4z
		"/>
	<path class="st11" d="M421.7,194.5c-0.1,0.1-0.2,0.1-0.2,0.1c0-0.9-0.1-1.7-0.2-2.5c0.9-0.6,2.2-1.6,2.5-2.5
		C423.7,189.6,423.8,192.5,421.7,194.5z"/>
	<path class="st6" d="M392.2,238.5l-9.2,5.3l-0.8-1.1l1.5-3.9l2.5-2.3l2.9-1.3c0,0,2.2-0.4,2.2-0.3c0,0.1,1.5,0.8,1.6,0.9
		c0.1,0.1,1.1,0.9,1.1,0.9L392.2,238.5z"/>
	<path class="st12" d="M392.2,238.5l-9.2,5.3l-0.8-1.1l1.5-3.9l2.5-2.3l2.9-1.3c0,0,2.2-0.4,2.2-0.3c0,0.1,1.5,0.8,1.6,0.9
		c0.1,0.1,1.1,0.9,1.1,0.9L392.2,238.5z"/>
	<path class="st6" d="M397.1,230.2v5.5l-4.9,2.8c-0.2-1.5-1.3-2.5-2.8-2.5c-0.7,0-1.5,0.2-2.3,0.7c-2.3,1.3-4.1,4.2-4.1,6.6
		c0,0.2,0,0.4,0,0.6l-0.1,0.1l-14.3,8.3l-0.4-5.3L397.1,230.2z"/>
	<path class="st24" d="M391.2,239.1c0,2-1.6,4.6-3.6,5.7c-2,1.2-3.6,0.5-3.6-1.5c0-2,1.6-4.6,3.6-5.7
		C389.5,236.4,391.2,237.1,391.2,239.1z"/>
	<polygon class="st9" points="425.7,219.2 425.7,263.2 349.4,307.2 349.4,263.2 	"/>
	<path class="st10" d="M423.9,233c-0.2,4.5-2.5,10.9-5.9,10.3c-0.2,0-0.4-0.1-0.6-0.2c-2.5-1.1-0.3-6.2-0.2-8.7
		c0.1-2.6-3-8.2-3.7-16.2c-0.8-8.1,3.1-8.4,3.1-8.4C422.4,210.4,424.1,228.5,423.9,233z"/>
	<path class="st11" d="M415.7,221.9c2.2,8.4,3.8,13.7,2.8,16.3c-0.7,1.6-1.1,3.5-1.1,5c-2.5-1.1-0.3-6.2-0.2-8.7
		c0.1-2.6-3-8.2-3.7-16.2c-0.8-8.1,3.1-8.4,3.1-8.4S413.5,213.5,415.7,221.9z"/>
	<path class="st12" d="M345.2,194.2c-3.2,0.5-12.4,2.7-12.8,2.7c0.5-0.5,0.7-1,0.7-1c0.3-0.1,9.3-2.9,11.1-2.4
		C344.5,193.6,344.8,193.9,345.2,194.2z"/>
	<path class="st16" d="M337.6,191.1c-0.4,0.1-1,0.1-1.4-0.1c-0.7-0.3-1.2-1-1.5-1.7c-0.1,0.3-0.6,0.4-0.9,0.1
		c-0.3-0.2-0.3-0.6-0.4-0.9c-0.1-0.9,0.2-1.9,0.6-2.7c-0.9-0.6-1.5-1.9-1.2-3c-1.2-0.2-2-1.5-1.8-2.7c-1.1-0.6-2-1.7-2.4-2.9
		c0,0.1,0,0.1-0.1,0.2l0.1-0.4c0,0,1.1,1.7,2.6,1.1c0,0-0.1,2.6,1.1,2.8c0,0,0.8,2.6,1.9,3c0,0-0.2,2.4,0.6,2.4c0,0-1.2,1.1,0,2.3
		C334.9,188.4,335.6,190.6,337.6,191.1z"/>
	<path class="st25" d="M305.7,235.8l11.1-6.4l11.1-6.4l2.7,1.6l2.7,1.6l-11.1,6.4l-11.1,6.4l-0.5-0.2
		C308.7,238.2,307,237.2,305.7,235.8L305.7,235.8z"/>
	<path class="st21" d="M295.6,230.2l12.6-7.3l12.6-7.3l3.1,1.8l3.1,1.8l-12.6,7.3l-12.6,7.3l-0.6-0.2
		C299.1,232.8,297.2,231.7,295.6,230.2L295.6,230.2z"/>
	
		<rect x="336.8" y="229.1" transform="matrix(0.5002 -0.8659 0.8659 0.5002 -34.1928 417.6141)" class="st0" width="15.7" height="18.6"/>
	
		<rect x="336.8" y="229.1" transform="matrix(0.5002 -0.8659 0.8659 0.5002 -34.1928 417.6141)" class="st26" width="15.7" height="18.6"/>
</g>
<g>
	<polygon class="st8" points="95.5,255.1 100.3,257.9 105.2,260.7 187.4,213.2 269.6,165.7 264.8,163 259.9,160.2 177.7,207.6 	"/>
	<polygon class="st2" points="153.5,221.5 153.7,64.6 182.7,64.6 182.5,204.7 	"/>
	<polygon class="st2" points="153.5,221.5 182.5,204.8 211.6,221.5 182.5,238.3 	"/>
	<polygon class="st2" points="153.5,221.5 153.7,64.6 182.7,64.6 182.5,204.7 	"/>
	<polygon class="st2" points="153.5,221.5 182.5,204.8 211.6,221.5 182.5,238.3 	"/>
	<polygon class="st2" points="163.2,223.4 192.2,206.6 211.6,217.8 182.5,234.6 	"/>
	<polygon class="st3" points="163.2,223.4 192.2,206.6 211.6,217.8 182.5,234.6 	"/>
	<polygon class="st2" points="163.2,223.4 163.2,70.2 192.2,70.2 192.2,206.6 	"/>
	<polygon class="st2" points="269.6,128.5 105.2,223.4 105.2,100.5 269.6,5.6 	"/>
	<polygon class="st0" points="110.3,103.5 259.9,17.2 259.9,123 110.4,209.3 	"/>
	<polygon class="st6" points="127.6,106.8 242.7,40.4 242.7,106.3 127.7,172.7 	"/>
	<polygon class="st2" points="105.2,100.5 95.5,94.9 95.5,217.8 105.2,223.4 	"/>
	<polygon class="st2" points="105.2,100.5 95.5,94.9 95.5,217.8 105.2,223.4 	"/>
	<polygon class="st2" points="95.5,94.9 100.3,97.7 105.2,100.5 187.4,53.1 269.6,5.6 264.8,2.8 259.9,0 177.7,47.5 	"/>
	<polygon class="st3" points="95.5,94.9 100.3,97.7 105.2,100.5 187.4,53.1 269.6,5.6 264.8,2.8 259.9,0 177.7,47.5 	"/>
	<polygon class="st2" points="259.9,122.9 264.4,125.5 264.4,14.6 259.9,17.2 	"/>
	<polygon class="st2" points="259.9,122.9 264.4,125.5 264.4,14.6 259.9,17.2 	"/>
	<polygon class="st2" points="259.9,122.9 110.3,209.2 110.3,214.4 264.4,125.5 	"/>
	<polygon class="st3" points="259.9,122.9 110.3,209.2 110.3,214.4 264.4,125.5 	"/>
	<polygon class="st7" points="239.5,101.1 226,95.9 227.8,119.8 230.7,113.6 237.8,126.8 242.8,118.7 235.8,105.5 	"/>
	<polygon class="st2" points="211.6,217.8 211.6,221.5 182.5,238.3 182.5,234.6 	"/>
	<path class="st27" d="M125.8,107.3c-3.8,0-7.3-0.8-9.8-2.2c-1.4-0.8-2-1.6-2.1-1.8c0.1-0.3,0.7-1,2.1-1.8c2.5-1.4,6-2.2,9.8-2.2
		c3.8,0,7.3,0.8,9.8,2.2c1.4,0.8,2,1.6,2.1,1.8c-0.1,0.3-0.7,1-2.1,1.8C133.1,106.5,129.5,107.3,125.8,107.3z"/>
	<path class="st2" d="M114.9,103.3l1.2,11.5c0.1,0.8,0.5,1.5,1.2,1.9c2.1,1.2,5.2,1.9,8.5,1.9c3.3,0,6.3-0.7,8.5-1.9
		c0.7-0.4,1.1-1.1,1.2-1.9l1.2-11.5H114.9z"/>
	<path class="st2" d="M128.3,118.4c-0.8,0.1-1.7,0.1-2.5,0.1c-3.3,0-6.3-0.7-8.5-1.9c-0.7-0.4-1.1-1.1-1.2-1.9l-1.2-11.5h5l1.2,11.5
		c0.1,0.8,0.5,1.5,1.2,1.9C123.9,117.6,126,118.2,128.3,118.4z"/>
	<path class="st15" d="M125.8,59.8c-11.1,0-20.1,9.1-20,20.2c0,3,0.7,5.7,1.9,8.3c0.2,0.5,0.5,0.9,0.7,1.4c0,0.1,0.1,0.1,0.1,0.2
		c2.5,3.6,3.9,7.9,4.2,12.3l0.1,1.3c0,0.6,0.8,1.7,2.7,2.8c2.6,1.5,6.4,2.4,10.3,2.4c3.9,0,7.7-0.9,10.3-2.4
		c1.8-1.1,2.7-2.2,2.7-2.8l0.1-1.3c0.3-4.4,1.8-8.7,4.3-12.4c0.3-0.5,0.5-1,0.8-1.5c1.2-2.6,1.9-5.4,1.9-8.4
		C145.7,68.7,136.8,59.8,125.8,59.8z"/>
	<path class="st16" d="M119.5,106.4c0,0.3,0.3,0.9,0.9,1.5c-1.9-0.4-3.6-1-5-1.8c-1.8-1.1-2.7-2.2-2.7-2.8l-0.1-1.3
		c-0.3-4.4-1.7-8.6-4.2-12.3c0-0.1-0.1-0.1-0.1-0.2c-0.3-0.5-0.5-0.9-0.7-1.4c-1.2-2.5-1.8-5.3-1.9-8.3c-0.1-11.1,8.9-20.2,20-20.2
		c1.2,0,2.3,0.1,3.4,0.3c-9.5,1.6-16.7,10-16.6,19.9c0,3,0.7,5.8,1.9,8.3c0.2,0.5,0.5,0.9,0.7,1.4c0,0.1,0.1,0.1,0.1,0.2
		c2.5,3.6,3.9,7.9,4.2,12.3L119.5,106.4z"/>
	<g>
		<path class="st9" d="M283.8,177.6c-0.7,0.4-1.8,0.8-2.8,1.1c-1,0.3-1.8,0.6-1.8,0.6s-0.7,1-1.5,2c-0.6,0.7-1.2,1.4-1.7,1.6
			c-1.1,0.6-4.5,0.8-4.5,0.8s-0.8,1.1-1.8,2.1c-0.6,0.6-1.3,1.2-1.9,1.5c-1.5,0.6-5.4,2.2-5.5,2.3c0,0-1.1,1.4-2,2.3
			c-0.3,0.3-0.6,0.6-0.9,0.7c-0.5,0.3-2.1,1.4-4.9,2.5c-2.3,0.9-5.3,1.7-9.2,2c-8.6,0.6-13.3,1.1-16-0.1c-2.8-1.2-11.1-6.3-13.5-7.1
			c-2.4-0.8-14.1-6.8-16.8-8.3c-2.7-1.6-11.7-10.9-12.9-13c-0.4-0.6-0.9-2-1.4-3.6c-1.4-3.9-3-9.4-3-9.4l10-4.2l16.3-1.8l22.2-0.6
			l11.6,5.3l3.7,3.7l-2.2,2.8c0.1,0.5,5.2,3.6,6.2,5.2c0,0,10.1,5.2,12.2,7.1c0,0,8.3-1.7,10.7-1.4c0,0,1.5-2.4,4.5-3.7
			c1.3-0.5,3-0.8,4.9-0.6c0,0,3-2.6,5.5-1c0.2,0.1,0.5,0.3,0.7,0.6C290.5,169.6,285.2,176.9,283.8,177.6z"/>
		<path class="st13" d="M279.2,179.3c0,0-0.7,1-1.5,2c-0.6,0.7-1.2,1.4-1.7,1.6c-1.1,0.6-4.5,0.8-4.5,0.8s-0.8,1.1-1.8,2.1
			c-0.6,0.6-1.3,1.2-1.9,1.5c-1.5,0.6-5.4,2.2-5.5,2.3c0,0-1.1,1.4-2,2.3c-0.3,0.3-0.6,0.6-0.9,0.7c-0.5,0.3-2.1,1.4-4.9,2.5
			c-2.2-3.3-9.4-13.2-9.4-13.2l-3.4-8.9c0,0,9,2.7,15.7,3.2c6.6,0.5,19.5-5.5,19.5-5.5S278.2,175.2,279.2,179.3z"/>
		<path class="st13" d="M287.3,166.3c-1.1,1.2-2.1,2.9-3,4.8c-1.2,2.5-2.5,5.3-3.3,7.6c-1,0.3-1.8,0.6-1.8,0.6s-0.7,1-1.5,2l-4,0.1
			l3.1-13.4c1.3-0.5,3-0.8,4.9-0.6C281.8,167.4,284.8,164.8,287.3,166.3z"/>
		<path class="st9" d="M268.6,180.1l-0.9,2.2l-6.7,4.4l-12.2-0.5l-9.3-1.6l-6.6-7.1c0.2-0.5,0.4-0.9,0.6-1.2
			c2.6-4.4,8.5-3.2,8.5-3.2s12.4,6.3,14.4,6.6c0.8,0.1,2.1,0,3.5-0.1c2.2-0.3,4.5-0.7,4.5-0.7L268.6,180.1z"/>
		<path class="st13" d="M268.6,180.1l-0.9,2.2l-6.7,4.4l-12.2-0.5l-9.3-1.6l-6.6-7.1c0.2-0.5-0.2,0.3,0-0.1
			c5.1,2.2,19.2,6.3,26.9,2.1c2.2-0.3,4.5-0.7,4.5-0.7L268.6,180.1z"/>
		<path class="st9" d="M283.7,171.2c-0.1,1-4.5,8.1-4.5,8.1s-2.1,3-3.1,3.6c-1.1,0.6-4.5,0.8-4.5,0.8s-0.8,1.1-1.8,2.1l0-2.2l0-5.1
			l2.5-7c0,0,2.7-4.6,8.5-4.3c0.3,0,0.6,0,0.9,0.1C283.6,168.1,283.8,170.3,283.7,171.2z"/>
		<path class="st13" d="M280.9,167.3c-1.8,1-2.9,2.5-3.8,4.6c-1.8,4.3-4.8,9.4-7.2,11.8l0-5.1l2.5-7
			C272.4,171.6,275.1,167,280.9,167.3z"/>
		<path class="st9" d="M275.2,177.5c-0.3,1.9-3.6,6.3-3.6,6.3s-2.2,3-3.7,3.6c-0.8,0.3-2.1,0.8-3.2,1.3c-1.2,0.5-2.3,0.9-2.3,1
			c0,0-1.1,1.4-2,2.3c-0.3-2.3-0.6-5.2-0.5-5.3c0.1-0.1-0.6,2.2,2.5-5.5c3-7.6,9.9-7.5,11.2-7.3c0.2,0,0.5,0.1,0.7,0.2
			C275,174.7,275.5,176,275.2,177.5z"/>
		<path class="st9" d="M260.6,185.1l-3.1,4l-3.4,4.4c0,0-32-4.8-29.2-10.7c0.6-1.2,1.2-2.2,1.9-2.9c2.7-2.8,6-2.4,6-2.4
			s11,7.2,13.7,7.4c2.7,0.2,8.6-1.1,8.6-1.1L260.6,185.1z"/>
		<path class="st13" d="M257.3,186.2l-3.3,7.3c0,0-32-4.8-29.2-10.7c0.6-1.2-0.3,0.2,0.4-0.6C229.5,185.2,244.4,189.4,257.3,186.2z"
			/>
		<path class="st9" d="M249.7,162.1c-1.2,1.5-1.6,1.6-2.6,1.5c-0.1,0-0.2,0-0.4-0.1c-1.5-0.4-5.6-2.3-8.7-6.1c0,0-7.7-2.8-10.5-1.7
			c-2.8,1.1-13.2,4.5-21.4-1.2c-1.7-1.2-3.5-1.3-5.1-0.8c-4.4,1.3-8.4,6.9-10.5,10.3c-1,1.6-1.5,2.7-1.5,2.7l-2.4,2.4L168,162
			c-3-0.5-4.9-2.9-4.9-6.8c0-2.1,0.5-4.3,1.4-6.5c2-4.9,6-9.8,10.6-12.4c3.3-1.9,6.3-2.3,8.4-1.4l0.1-0.1c0,0,16.2,11.8,17.9,12.2
			c1.7,0.4,15.2-3.3,25.4-1.9c10.3,1.4,16.2,6.8,18.7,9.8C248.1,157.7,250.9,160.6,249.7,162.1z"/>
		<path class="st13" d="M246.7,163.6c-1.5-0.4-5.6-2.3-8.7-6.1c0,0-7.7-2.8-10.5-1.7c-2.8,1.1-13.9,6.3-22.1,0.7
			c-1.7-1.2-2.8-1.9-4.4-2.7c2.1-1.7,5.8-3.6,10.8-1.5c7.9,3.3,24.6-3.1,27.3,1.4C241.8,158.1,246.7,163.5,246.7,163.6
			C246.7,163.5,246.7,163.6,246.7,163.6z"/>
		<path class="st13" d="M274.2,174.2c-1.2,1-4.3,4.5-6.8,8.8c-1,1.8-0.8,3.8-2.7,5.7c-1.2,0.5-2.3,0.9-2.3,1c0,0-1.1,1.4-2,2.3
			c-0.3-2.3-0.6-5.2-0.5-5.3c0.1-0.1-0.6,2.2,2.5-5.5c3-7.6,9.9-7.5,11.2-7.3C273.7,174,274,174.1,274.2,174.2z"/>
		<path class="st9" d="M262.4,189.7c0,0-1.9,2.5-2.9,3c-0.9,0.5-5.3,3.7-13.4,4.4c-0.2,0-0.5,0-0.7,0.1c-8.6,0.6-13.3,1.1-16-0.1
			c-2.8-1.2-11.1-6.3-13.5-7.1c-2.4-0.8-14.1-6.8-16.8-8.3c-2.7-1.6-11.7-10.9-12.9-13c-0.4-0.6-0.9-2-1.4-3.6c1-1.2,2-2.4,3-3.5
			c2.4-2.9,4.4-5.3,4.4-5.4c-0.1-0.2,17.1,17.1,17.1,17.1s12.2,7.2,16.3,9.7c4,2.5,13.1,6.7,16,6.1c2.9-0.5,9.6-0.9,9.6-0.9
			c4.4-6.9,6.9-6.5,9.2-6.9c0.7-0.1,1.4,0,2.1,0.3c0.5,0.2,1,0.6,1.4,0.9c0.6,0.6,1,1.2,1.2,1.7
			C265.4,185.2,262.4,189.6,262.4,189.7z"/>
		<path class="st13" d="M251.8,191.5l-0.1-0.2c-0.5-0.8-1-2.5-0.8-3.4c4.4-6.9,6.9-6.5,9.2-6.9c0.7-0.1,1.4,0,2.1,0.3
			C260.1,182.2,254.1,187,251.8,191.5z"/>
		<path class="st13" d="M251.8,191.5c0,0-1.6,3.4-5.6,5.5c-0.2,0.1-0.7,0.2-0.9,0.2c-1.5,0.1-2.8,0.2-4.1,0.3
			c-6,0.4-9.6,0.6-11.9-0.4c-2.8-1.2-11.1-6.3-13.5-7.1c-2.4-0.8-14.1-6.8-16.8-8.3c-2.5-1.4-10.4-9.5-12.5-12.4
			c0,0-18.5-7.2-18.5-7.2c-3-0.5-4.9-2.9-4.9-6.8c0-2.1,0.5-4.3,1.4-6.5c10.4,5.1,24,14,25.6,15.1c0.1,0,0.1,0.1,0.2,0.1
			c3.4,3.9,11.5,13,15.2,15.6c3.7,2.5,22.1,13.3,27.1,13.4c2.2,0.1,5.4,0.2,8.5,0.2C245.3,192.9,249.1,192.6,251.8,191.5
			C251.8,191.6,251.8,191.5,251.8,191.5z"/>
		<path class="st28" d="M257.3,190.1c0,0,4.3-0.2,5.6-1.4c1.4-1.2,3.1-4.4,2.2-4.8c-0.9-0.4-3.4,0.5-4.4,1.5
			C259.8,186.5,257.3,190.1,257.3,190.1z"/>
		<path class="st28" d="M287.4,168.1c-1.4,1.6-2.4,3.6-2.8,5.7c0.8,0.4,1.9,0.2,2.6-0.4c0.7-0.6,1.2-1.4,1.4-2.3
			c0.2-0.9,0.4-2.1,0.3-3C288.7,167.1,287.8,167.6,287.4,168.1z"/>
		<path class="st28" d="M274.3,175.5c-1.6,1.4-2.8,3.2-3.5,5.3c0.8,0.5,1.8,0.4,2.6,0c0.8-0.4,1.4-1.2,1.7-2.1c0.3-0.8,0.7-2,0.7-3
			C275.7,174.7,274.9,175,274.3,175.5z"/>
		<path class="st28" d="M282.3,170.1c-1.6,1.4-2.8,3.2-3.5,5.3c0.8,0.5,1.8,0.4,2.6,0c0.8-0.4,1.4-1.2,1.7-2.1c0.3-0.8,0.7-2,0.7-3
			C283.7,169.3,282.8,169.6,282.3,170.1z"/>
		<path class="st15" d="M248.7,151.6c0-4.6,1.9-9.9,4.9-14.7c3-4.8,7.2-9.1,11.9-11.8c4.6-2.7,8.8-3.2,11.9-1.9
			c0.3,0.1,0.6,0.3,0.9,0.5c0,0,2.5,1.5,2.5,1.5l-0.4,0.5c1.2,1.6,1.8,3.8,1.8,6.6c0,4.6-1.9,9.9-4.9,14.7c-3,4.8-7.2,9.1-11.9,11.8
			c-3.2,1.8-6.1,2.7-8.6,2.6l-0.6,0.9l-3.4-1.9C250.3,158.8,248.7,155.9,248.7,151.6z"/>
		<path class="st16" d="M248.7,151.6c0-4.6,1.9-9.9,4.9-14.7c3-4.8,7.2-9.1,11.9-11.8c4.6-2.7,8.8-3.2,11.9-1.9
			c0.3,0.1,0.6,0.3,0.9,0.5c0,0,2.5,1.5,2.5,1.5l-0.4,0.5c1.2,1.6,1.8,3.8,1.8,6.6c0,4.6-1.9,9.9-4.9,14.7c-3,4.8-7.2,9.1-11.9,11.8
			c-3.2,1.8-6.1,2.7-8.6,2.6l-0.6,0.9l-3.4-1.9C250.3,158.8,248.7,155.9,248.7,151.6z"/>
		<path class="st15" d="M251.7,153.4c0,4.6,1.9,7.8,4.9,9c3,1.3,7.2,0.7,11.9-1.9c4.6-2.7,8.8-7,11.9-11.8s4.9-10.1,4.9-14.7
			c0-4.6-1.9-7.8-4.9-9c-3-1.3-7.2-0.7-11.9,1.9c-4.6,2.7-8.8,7-11.9,11.8C253.6,143.4,251.7,148.7,251.7,153.4z"/>
	</g>
</g>
<g>
	<path class="st29" d="M353.5,171.4c6.4,3.7,6.4,9.6,0,13.3c-6.4,3.7-16.7,3.7-23.1,0c-6.4-3.7-6.4-9.6,0-13.3
		C336.8,167.7,347.1,167.7,353.5,171.4z"/>
	<g>
		<path class="st30" d="M344.5,177.6c0,0.5-0.2,1-0.7,1.5c-1,0.8-2.6,0.8-3.6,0c-0.5-0.4-0.7-0.9-0.7-1.5l0.2-22.9l0.1-9.2l0-1.7
			l0.5-81.7v-0.7h3.6l0.5,82.3l0,6.3l0,1.2L344.5,177.6z"/>
		<path class="st14" d="M373.2,118.6c-1.2,1.4-4,2.1-6.3,1.6c1,0.2,1.8,0.8,2.2,1.4c0.4,0.7,0.5,1.4,0.2,2.1c-0.1,0.4-0.4,0.7-0.8,1
			c-0.4,0.3-1,0.5-1.5,0.4c1.6,0.3,2.9,1.4,2.8,2.5c-0.1,1.1-1.5,2.1-3.2,2.3c1.3,0.9,1.4,2.2,1.2,3.5c-0.1,0.7-0.2,1.5-0.7,2.2
			c-0.5,0.7-1.3,1.3-2.4,1.5c-0.9,0.2-2,0-2.6-0.5c0.4,0.5,0.6,1.2,0.4,1.8c-0.3,0.7-0.9,1.3-1.7,1.8c-0.5,0.3-1,0.5-1.6,0.6
			c-0.4,0.1-0.8,0-1.1-0.1c0.1,0.1,0.1,0.2,0.1,0.2c0.1,0.1,0,0.3-0.1,0.4c-0.2,0.4-0.8,0.6-1.3,0.8c-0.3,0.1-0.7,0.2-1,0.4
			c-0.2,0.2-0.4,0.5-0.7,0.7c-0.9,0.6-2.2,0.9-3.4,1c-1.3,0.1-2.5-0.1-3.7-0.4c-1.2-0.2-2.3-0.5-2.8-1.3c0.4,0.5-0.1,1.1-0.8,1.3
			c-0.1,0-0.1,0-0.1,0c-0.7,0.1-1.4,0-2-0.2c-0.1,0-0.2-0.1-0.3-0.1c-0.1,0.1-0.2,0.1-0.4,0.1c-0.6,0.2-1.3,0.3-2,0.2
			c-0.1,0-0.1,0-0.2,0c-0.7-0.2-1.2-0.8-0.8-1.2c-0.3,0.5-0.9,0.8-1.5,1c-0.4,0.1-0.9,0.2-1.3,0.3c-1.2,0.2-2.5,0.4-3.7,0.3
			c-1.2-0.1-2.5-0.3-3.4-0.9c-0.4-0.2-0.7-0.6-0.9-0.9c-0.3-0.1-0.5-0.2-0.8-0.3c-0.5-0.2-1.1-0.5-1.3-0.9c-0.1-0.2-0.1-0.4,0-0.6
			c0,0-0.1,0-0.1-0.1c-0.3,0.1-0.6,0.1-0.9,0c-0.6-0.1-1.2-0.3-1.6-0.6c-0.8-0.5-1.5-1.2-1.7-1.9c-0.2-0.6-0.1-1.2,0.2-1.7
			c-0.7,0.4-1.6,0.5-2.4,0.4c-1.1-0.2-1.9-0.9-2.4-1.6c-0.1-0.1-0.2-0.3-0.2-0.4c-0.1-0.2-0.1-0.3-0.2-0.5c-0.1-0.2-0.1-0.3-0.1-0.5
			c0,0,0-0.1,0-0.1c0-0.1-0.1-0.3-0.1-0.4c0-0.2-0.1-0.3-0.1-0.5c-0.1-1.3-0.1-2.8,1.2-3.7c-1.7-0.2-3.1-1.2-3.2-2.4
			c-0.1-1.2,1.2-2.4,2.8-2.7c-0.6,0-1.2-0.2-1.5-0.5c-0.4-0.3-0.6-0.7-0.8-1.1c-0.2-0.7-0.2-1.5,0.2-2.2c0.4-0.7,1.2-1.3,2.2-1.5
			c-2.3,0.5-5.1-0.2-6.3-1.7c-1.2-1.5-0.6-3.6,1.2-4.7c-0.2-0.8-0.4-1.6-0.3-2.3c0.1-0.8,0.4-1.6,1.1-2.2c0.7-0.6,1.9-0.9,3-0.8
			c-0.5-0.9-1-1.9-0.8-2.9c0.1-1,1-2,2.4-2.3c-1,0.1-2.1-0.2-3-0.6c-1.4-0.6-2.6-1.4-3.5-2.4c-0.8-1-1.3-2.2-1-3.4
			c0.3-1.2,1.2-2.3,2.6-2.8c-0.6-0.7-0.5-1.7,0.3-2.3c0.8-0.6,2.2-0.8,3.2-0.4c-0.4-0.8-0.8-1.6-0.6-2.4c0.2-0.8,1.1-1.6,2.3-1.6
			c-1-0.9-1.2-2.2-0.7-3.3c0.5-1.1,1.7-2,3.3-2.4c-0.2-0.9-0.8-1.6-1.3-2.4c-0.5-0.8-0.9-1.6-0.7-2.5c0.2-0.9,1.3-1.7,2.5-1.6
			c-0.8-0.1-1.5-0.7-1.5-1.3c0-0.6,0.7-1.1,1.6-1.2c-1.1-0.7-1.7-1.8-1.6-2.9c0-0.3,0.1-0.5,0.4-0.7c0.2-0.2,0.7-0.3,1-0.2
			c-0.2-0.8,0.7-1.6,1.8-1.9c1.1-0.3,2.3-0.3,3.4-0.2c-0.5-0.7-1-1.4-1-2.2c0-0.8,0.7-1.6,1.8-1.7c-1-0.5-1.4-1.4-1.2-2.2
			c0.3-0.8,1.2-1.5,2.4-1.6c-0.3-0.5-0.8-1-1.1-1.5c-0.3-0.5-0.5-1.1-0.2-1.6c0.2-0.5,0.9-1,1.7-0.9c-0.9-0.4-1.2-1.3-0.7-1.9
			c0.5-0.7,1.7-0.9,2.7-0.6c-0.4-0.5,0-1.2,0.6-1.5s1.6-0.4,2.3-0.2c0.8,0.2,1.4,0.5,2,1c-0.6-0.7-0.3-1.7,0.6-2.2
			c0.9-0.5,2.2-0.4,3,0.2c0,0,0.1,0.1,0.1,0.1c-0.1-0.5-0.1-1.1,0.1-1.6c0.2-0.5,0.7-1,1.4-1.2c0.7-0.2,1.6-0.2,2.1,0.2
			c-0.2-0.3,0.1-0.7,0.6-0.9c0.5-0.1,1-0.1,1.5,0c0.9,0.2,1.7,0.8,2.1,1.5c0.3,0.6,0.3,1.3,0,1.9c0.1-0.1,0.2-0.1,0.3-0.2
			c0.2-0.1,0.5,0,0.7,0c1.3,0.2,2.3,0.9,2.7,1.8c0.4,0.9,0.2,2-0.7,2.7c0.3-0.3,1,0,1,0.4c0,0.4-0.4,0.6-0.9,0.8
			c0.8,0.2,1.5,0.8,1.7,1.4c0,0.1,0,0.2,0,0.3c0.6-0.1,1.3,0,1.8,0.2c0.7,0.3,1,1,0.6,1.4c0.9-0.3,2.2,0,2.7,0.6
			c0.5,0.6,0.2,1.4-0.7,1.8c0.8,0,1.5,0.4,1.7,0.9c0.2,0.5,0.1,1-0.2,1.5c-0.3,0.5-0.7,0.9-1.1,1.4c1.2,0.1,2.1,0.8,2.4,1.5
			c0.2,0.8-0.2,1.6-1.2,2.1c1.1,0.1,1.8,0.9,1.8,1.6c0,0.7-0.5,1.4-1,2.1c1.2,0,2.4-0.1,3.4,0.2c1.1,0.3,2,1,1.8,1.8
			c0.3-0.1,0.7,0,1,0.1c0.2,0.2,0.3,0.4,0.4,0.7c0.1,1-0.5,2-1.6,2.7c0.8,0.1,1.5,0.6,1.6,1.1c0,0.6-0.6,1.1-1.5,1.2
			c1.2,0,2.3,0.7,2.5,1.5c0.2,0.8-0.2,1.6-0.7,2.4c-0.5,0.7-1.1,1.5-1.3,2.3c1.5,0.4,2.8,1.2,3.3,2.2c0.5,1,0.2,2.2-0.7,3.1
			c1.2,0,2.1,0.7,2.3,1.5c0.2,0.8-0.2,1.5-0.6,2.3c1-0.4,2.4-0.2,3.2,0.4c0.8,0.6,0.9,1.5,0.3,2.1c1.5,0.5,2.4,1.5,2.6,2.6
			c0.3,1.1-0.2,2.2-1,3.1c-0.9,0.9-2.1,1.7-3.5,2.3c-0.9,0.4-1.9,0.7-3,0.6c1.3,0.2,2.2,1.2,2.4,2.1c0.1,0.9-0.3,1.9-0.8,2.7
			c1.1-0.2,2.2,0.2,3,0.7c0.7,0.5,1.1,1.3,1.1,2c0.1,0.7-0.1,1.5-0.3,2.2C373.8,115.2,374.3,117.2,373.2,118.6z"/>
		<path class="st17" d="M358.2,140.9c-0.2-0.1-0.5-0.3-0.7-0.5c-1.5,0.3-3.1,0.2-4.5-0.4c-1.3,1.9-4.5,1.9-5.8,0
			c-3.2-0.2-6-3.4-5.6-6.6c-3.3-0.7-5.7-4.1-5.3-7.4c-1,0.1-2-0.3-2.9-0.9c0.5-0.6,1.2-1.1,2-1.3c-1.8-2.3,0.1-6.5,3-6.6
			c-1.1-0.9-1.3-2.5-0.7-3.7c1.7,0.8,3.8,0.6,5.3-0.5c-0.3,0.9,0.4,1.9,1.4,2c0.9,0.2,1.8-0.3,2.6-0.9c0.7-0.6,1.3-1.3,2.1-1.9
			c0.7-0.5,1.7-0.9,2.6-0.7c-1.3-0.4-2-2-1.6-3.3c-1.2,0.3-2.5-0.1-3.4-0.9c-4.2-0.6-8-3.2-10.1-6.8c-2.7-0.5-5-2.8-5.3-5.6
			c-1.7-0.3-3.2-1.4-4.2-2.9c0.4-1.2,1.3-2.2,2.4-2.6c-1.7-1.6-1.8-4.6-0.4-6.4c1.2,0.4,2.1,1.4,3.2,2.1c1.3,0.8,3.2,1.1,4-0.2
			c0.5,1,1.5,1.6,2.6,1.6c1.1,0,2.1-0.6,2.6-1.6c0.3-0.6,0.4-1.2,0.7-1.7c0.1-0.2,0.4-0.4,0.6-0.5c-1-0.2-1.9-0.7-2.6-1.5
			c-1.7,0.3-3.6-0.4-4.7-1.7c-1.2-1.4-1.4-3.2-1.1-4.9c-1.5,0.3-3-0.4-4.5-1.1c-0.4-1.5,0.2-3.2,1.4-4.1c1.4-1.1,3.5-1.1,4.9,0
			c-0.6-3,1.2-6.1,3.8-7.5c0.5-0.3,1.1-0.5,1.6-0.7c0.5-0.1,1-0.2,1.6-0.2c-1.9-0.4-3.1-2.9-2.2-4.6c-2.9-0.8-4-5.1-1.9-7.2
			c-0.3-0.5-0.6-1-0.7-1.6c-0.8-0.6-2.1-0.6-3-0.2c-0.9,0.5-1.2,1.5-0.6,2.2c-0.6-0.4-1.2-0.8-2-1c-0.8-0.2-1.7-0.2-2.3,0.2
			s-1,1-0.6,1.5c-0.9-0.3-2.2,0-2.7,0.6c-0.5,0.7-0.2,1.5,0.7,1.9c-0.8,0-1.5,0.4-1.7,0.9c-0.2,0.5-0.1,1.1,0.2,1.6
			c0.3,0.5,0.7,1,1.1,1.5c-1.2,0.1-2.1,0.8-2.4,1.6c-0.2,0.8,0.2,1.7,1.2,2.2c-1.1,0.1-1.8,0.9-1.8,1.7c0,0.8,0.5,1.5,1,2.2
			c-1.2,0-2.4-0.1-3.4,0.2c-1.1,0.3-2,1.1-1.8,1.9c-0.3-0.1-0.7,0-1,0.2c-0.2,0.2-0.3,0.5-0.4,0.7c-0.1,1.1,0.5,2.2,1.6,2.9
			c-0.8,0.1-1.5,0.6-1.6,1.2c0,0.6,0.6,1.2,1.5,1.3c-1.2,0-2.3,0.8-2.5,1.6c-0.2,0.9,0.2,1.7,0.7,2.5c0.5,0.8,1.1,1.6,1.3,2.4
			c-1.5,0.4-2.8,1.3-3.3,2.4c-0.5,1.1-0.2,2.4,0.7,3.3c-1.2,0-2.1,0.8-2.3,1.6c-0.2,0.8,0.2,1.6,0.6,2.4c-1-0.4-2.4-0.2-3.2,0.4
			c-0.8,0.6-0.9,1.6-0.3,2.3c-1.5,0.5-2.4,1.6-2.6,2.8c-0.3,1.2,0.2,2.4,1,3.4c0.9,1,2.1,1.8,3.5,2.4c0.9,0.4,1.9,0.7,3,0.6
			c-1.3,0.3-2.2,1.3-2.4,2.3c-0.1,1,0.3,2,0.8,2.9c-1.1-0.2-2.2,0.2-3,0.8c-0.7,0.6-1.1,1.4-1.1,2.2c-0.1,0.8,0.1,1.6,0.3,2.3
			c-1.9,1.1-2.4,3.2-1.2,4.7c1.2,1.5,4,2.3,6.3,1.7c-1,0.2-1.8,0.8-2.2,1.5c-0.4,0.7-0.5,1.5-0.2,2.2c0.1,0.4,0.4,0.8,0.8,1.1
			c0.4,0.3,1,0.5,1.5,0.5c-1.6,0.3-2.9,1.5-2.8,2.7c0.1,1.2,1.5,2.3,3.2,2.4c-1.3,0.9-1.4,2.4-1.2,3.7c0,0.2,0,0.3,0.1,0.5
			c0,0.1,0.1,0.3,0.1,0.4c0,0,0,0.1,0,0.1c0,0.2,0.1,0.3,0.1,0.5c0.1,0.2,0.1,0.3,0.2,0.5c0.1,0.2,0.1,0.3,0.2,0.4
			c0.5,0.7,1.3,1.4,2.4,1.6c0.8,0.2,1.8,0,2.4-0.4c-0.3,0.5-0.4,1.2-0.2,1.7c0.3,0.8,0.9,1.4,1.7,1.9c0.5,0.3,1,0.5,1.6,0.6
			c0.3,0,0.6,0,0.9,0c0,0,0.1,0,0.1,0.1c-0.1,0.2-0.1,0.4,0,0.6c0.2,0.4,0.8,0.6,1.3,0.9c0.2,0.1,0.5,0.2,0.8,0.3
			c0.2,0.3,0.5,0.7,0.9,0.9c0.9,0.6,2.2,0.9,3.4,0.9c1.3,0.1,2.5-0.1,3.7-0.3c0.4-0.1,0.9-0.2,1.3-0.3c0.7-0.2,1.2-0.5,1.5-1
			c-0.4,0.4,0.1,1,0.8,1.2c0.1,0,0.1,0,0.2,0c0.7,0.1,1.4,0,2-0.2c0.1,0,0.2-0.1,0.4-0.1c0.1,0,0.2,0.1,0.3,0.1
			c0.6,0.2,1.4,0.3,2,0.2c0.1,0,0.1,0,0.1,0c0.7-0.2,1.2-0.8,0.8-1.3c0.5,0.8,1.6,1.1,2.8,1.3c1.2,0.2,2.5,0.4,3.7,0.4
			c1.2-0.1,2.5-0.4,3.4-1c0.3-0.2,0.5-0.4,0.7-0.7c0.3-0.1,0.7-0.2,1-0.4c0.5-0.2,1.1-0.4,1.3-0.8
			C358.2,141.2,358.2,141.1,358.2,140.9z M343,83c0.3,0.1,0.6,0.1,1,0.1C343.7,82.8,343.3,82.8,343,83z"/>
	</g>
</g>
<g>
	<g>
		<path class="st3" d="M286.6,293.8l-30.1,17.3c-2.3,1.3-6.1,1.3-8.4,0l-54.7-31.6c-2.3-1.3-2.3-3.5,0-4.9l30.1-17.4
			c2.3-1.3,6.1-1.3,8.4,0l54.7,31.6C288.9,290.3,288.9,292.4,286.6,293.8z"/>
		<path class="st2" d="M291.9,296.8l-30.1,17.4c-2.3,1.3-6.1,1.3-8.4,0l-0.3-0.2l-54.4-31.4c-1.3-0.7-1.8-1.7-1.7-2.7
			c0,0,0-3.5,0-3.5l3.1,0.5l3.2-1.9l25.5-14.7c2.3-1.3,6.1-1.3,8.4,0l51.2,29.6l5.2,0.8v3.4C293.7,295,293.1,296,291.9,296.8z"/>
		<path class="st2" d="M253,308.8v5.1l-54.4-31.4c-1.3-0.7-1.8-1.7-1.7-2.7c0,0,0-3.5,0-3.5l3.1,0.5l3.2-1.9L253,308.8z"/>
		<path class="st2" d="M291.8,293.1l-30.1,17.3c-2.3,1.3-6.1,1.3-8.4,0l-54.7-31.6c-2.3-1.3-2.3-3.5,0-4.9l30.1-17.3
			c2.3-1.3,6.1-1.3,8.4,0l54.7,31.6C294.2,289.6,294.2,291.7,291.8,293.1z"/>
		<g>
			<path class="st2" d="M269.8,302.2c-0.5,0-1-0.1-1.4-0.3c-0.4-0.2-0.6-0.6-0.6-0.9c0-0.3,0.2-0.7,0.6-0.9l6-3.5
				c0.8-0.5,2.1-0.5,2.9,0c0.4,0.2,0.6,0.6,0.6,0.9c0,0.3-0.2,0.7-0.6,0.9l-0.1-0.1l0.1,0.1l-6,3.5
				C270.9,302.1,270.3,302.2,269.8,302.2z M275.8,296.5c-0.5,0-1,0.1-1.3,0.3l-6,3.5c-0.3,0.2-0.5,0.4-0.5,0.7
				c0,0.3,0.2,0.5,0.5,0.7c0.7,0.4,1.9,0.4,2.7,0l6-3.5c0.3-0.2,0.5-0.4,0.5-0.7c0-0.3-0.2-0.5-0.5-0.7
				C276.8,296.6,276.3,296.5,275.8,296.5z"/>
		</g>
		<path class="st0" d="M249.3,306.7L199.5,278c-1.6-0.9-1.6-2.4,0-3.3l30.5-17.6c1.6-0.9,4.1-0.9,5.7,0l49.7,28.7
			c0.8,0.4,0.8,1.2,0,1.6L252,306.7C251.3,307.2,250,307.2,249.3,306.7z"/>
		<path class="st3" d="M291.8,293.1l-30.1,17.3c-2.3,1.3-6.1,1.3-8.4,0l-54.7-31.6c-2.3-1.3-2.3-3.5,0-4.9l30.1-17.3
			c2.3-1.3,6.1-1.3,8.4,0l54.7,31.6C294.2,289.6,294.2,291.7,291.8,293.1z"/>
	</g>
	<g>
		<path class="st6" d="M275.7,231.5l-4.9-2.9c-3.2-2.3-8.2-2.1-13.9,1.2c-4.5,2.6-8.6,6.7-11.7,11.3c-3.1-1-7.2-0.3-11.7,2.3
			c-9.7,5.6-17.5,17.9-17.5,27.6c0,3,2.8,5.8,6.6,8.3c0,0,5.8,3.5,5.8,3.5l0.2-0.3c7.9,3.7,16.6,6,16.6,6s29.2-41.6,29.2-51.3
			c0-1.4-0.2-2.7-0.5-3.9L275.7,231.5z"/>
		<path class="st12" d="M275.7,231.5l-4.9-2.9c-3.2-2.3-8.2-2.1-13.9,1.2c-4.5,2.6-8.6,6.7-11.7,11.3c-3.1-1-7.2-0.3-11.7,2.3
			c-9.7,5.6-17.5,17.9-17.5,27.6c0,3,2.8,5.8,6.6,8.3c0,0,5.8,3.5,5.8,3.5l0.2-0.3c7.9,3.7,16.6,6,16.6,6s29.2-41.6,29.2-51.3
			c0-1.4-0.2-2.7-0.5-3.9L275.7,231.5z"/>
		<path class="st6" d="M262,232.8c-4.5,2.6-8.6,6.7-11.7,11.3c-3.1-1-7.2-0.3-11.7,2.3c-9.7,5.6-17.5,17.9-17.5,27.6
			c0,9.7,29.2,17.5,29.2,17.5s29.2-41.6,29.2-51.3C279.6,230.5,271.7,227.2,262,232.8z"/>
	</g>
</g>
<g>
	<polygon class="st8" points="130,297.1 183.5,328.7 143.1,352 89.1,320.8 	"/>
	<polygon class="st31" points="183.4,291.5 135,263.5 94.7,286.8 143.1,314.8 	"/>
	<polygon class="st31" points="183.4,291.5 183.4,328.8 171.7,335.6 164.6,339.6 143.1,352.1 143.1,314.8 155.3,307.8 162.3,303.7 	
		"/>
	<polygon class="st31" points="143.1,314.8 143.1,352.1 121.1,339.4 111.2,333.6 94.7,324.1 94.7,286.8 98,288.7 107.9,294.5 	"/>
	<polygon class="st3" points="135,263.5 135,300.8 183.5,328.8 183.5,291.5 	"/>
	<polygon class="st32" points="162.5,316.6 152.5,310.9 139.3,266 149.3,271.8 	"/>
	<path class="st9" d="M157.8,239.3c-0.1,0.8-0.2,1.6-0.3,2.3c-0.1,0.4-0.1,0.8-0.2,1.1c-0.3,1.8-0.5,2.9-0.5,2.9
		c0,0-0.1-0.6-0.2-1.6c-0.5-5.4-2-22.5-2-22.5s0.2,0.1,0.5,0.2c0.1,0.1,0.3,0.1,0.5,0.2c1.1,0.5,2.8,1.5,3.5,2.8
		C159.6,225.9,158.7,233.6,157.8,239.3z"/>
	<path class="st33" d="M157.5,241.6c0,0.2,0.1,0.4,0.1,0.6l-0.3,0.5l-0.7,1.3c-0.5-5.4-2-22.5-2-22.5s0.2,0.1,0.5,0.2
		c0.1,0.1,0.3,0.1,0.5,0.2l2.3,17.4C157.7,240.1,157.6,240.9,157.5,241.6z"/>
	<path class="st9" d="M158.1,246.7c0.1,2-2.2,7.1-5.1,11.1c-0.1,0.2-0.3,0.3-0.4,0.5c-0.3,0.4-0.6,0.8-1,1.2l-2.5-19l-1.4-11l-1-5.4
		v-3.4c0,0,0.3-0.4,0.8-0.8c1.3-1.1,4.1-2.8,7.1,0c0,0,0.2,0.4,0.4,1.8c0,0.2,0,0.4,0.1,0.6c0.4,4.4,0.9,8.8,1.5,13.2
		c0.3,2.1,0.6,4.3,0.9,6.1c0,0.2,0.1,0.4,0.1,0.6C157.9,244.4,158.1,246.1,158.1,246.7z"/>
	<path class="st33" d="M147.6,220c0,0,2.9,5.2,3.9,10.1c1,4.9,3,19.9,3,19.9l-1.6,7.9l-1.8-13.7L147.6,220z"/>
	<path class="st9" d="M154.7,219.9l-4.1,3.1l-23,3.4l-6.6,1.1c0,0-13.2-4.2-13.2-4.2l-4.2-0.1l-5.6-0.2c0,0-0.7-1.5-1.6-3.9
		c-1-2.5-2.2-5.8-3.1-9.3c0,0-8.4-7.4-10.7-8.5c-1.1-0.5-0.9-4.2,0.6-8.1c1.6-4.1,4.6-8.5,9-10.1c8.6-3.1,11.7-3.6,13.9-1.2
		c2.2,2.4,11.3,10.4,11.3,10.4S144.7,204.6,154.7,219.9z"/>
	<path class="st9" d="M134.1,219.4c0,0,3.7-6.7,9.4-4.7s7.3,18.7,8,23c0.8,4.2,1.9,11.1,1.9,11.1s-0.1,8.7-2.6,17l-8.8-17.7
		l-5.4-15.1l-1.9-7.2L134.1,219.4z"/>
	<path class="st33" d="M134.8,219.8c0,0,8.1,6.9,13.6,27.2c1.2,4.7,3.2,16.4,3.2,16.4l-12.1-21.7L134.8,219.8z"/>
	<polygon class="st3" points="183.4,328.8 135,300.8 94.7,324.1 143.1,352.1 	"/>
	<polygon class="st3" points="135,300.8 135,263.5 94.7,286.8 94.7,324.1 	"/>
	<path class="st15" d="M153.1,308.1c0-1.6-0.6-3.4-1.7-5c-1-1.6-2.5-3.1-4.1-4c-1.6-0.9-3-1.1-4.1-0.7c-0.1,0-0.2,0.1-0.3,0.2
		c0,0-0.9,0.5-0.9,0.5l0.1,0.2c-0.4,0.6-0.6,1.3-0.6,2.2c0,1.6,0.6,3.4,1.7,5c1,1.6,2.5,3.1,4.1,4c1.1,0.6,2.1,0.9,3,0.9l0.2,0.3
		l1.2-0.7C152.6,310.5,153.1,309.5,153.1,308.1z"/>
	<path class="st16" d="M153.1,308.1c0-1.6-0.6-3.4-1.7-5c-1-1.6-2.5-3.1-4.1-4c-1.6-0.9-3-1.1-4.1-0.7c-0.1,0-0.2,0.1-0.3,0.2
		c0,0-0.9,0.5-0.9,0.5l0.1,0.2c-0.4,0.6-0.6,1.3-0.6,2.2c0,1.6,0.6,3.4,1.7,5c1,1.6,2.5,3.1,4.1,4c1.1,0.6,2.1,0.9,3,0.9l0.2,0.3
		l1.2-0.7C152.6,310.5,153.1,309.5,153.1,308.1z"/>
	<path class="st15" d="M152.1,308.7c0,1.6-0.6,2.7-1.7,3.1c-1,0.4-2.5,0.3-4.1-0.7c-1.6-0.9-3-2.4-4.1-4c-1-1.6-1.7-3.5-1.7-5
		c0-1.6,0.6-2.7,1.7-3.1c1-0.4,2.5-0.3,4.1,0.7c1.6,0.9,3,2.4,4.1,4C151.5,305.3,152.1,307.1,152.1,308.7z"/>
	<path class="st15" d="M128.7,335.5c0-1.6-0.6-3.4-1.7-5c-1-1.6-2.5-3.1-4.1-4c-1.6-0.9-3-1.1-4.1-0.7c-0.1,0-0.2,0.1-0.3,0.2
		c0,0-0.9,0.5-0.9,0.5l0.1,0.2c-0.4,0.6-0.6,1.3-0.6,2.2c0,1.6,0.6,3.4,1.7,5c1,1.6,2.5,3.1,4.1,4c1.1,0.6,2.1,0.9,3,0.9l0.2,0.3
		l1.2-0.7C128.1,337.9,128.7,336.9,128.7,335.5z"/>
	<path class="st15" d="M127.7,336.1c0,1.6-0.6,2.7-1.7,3.1c-1,0.4-2.5,0.3-4.1-0.7c-1.6-0.9-3-2.4-4.1-4c-1-1.6-1.7-3.5-1.7-5
		c0-1.6,0.6-2.7,1.7-3.1c1-0.4,2.5-0.3,4.1,0.7c1.6,0.9,3,2.4,4.1,4C127,332.6,127.7,334.5,127.7,336.1z"/>
	<path class="st16" d="M127.7,336.1c0,1.6-0.6,2.7-1.7,3.1c-1,0.4-2.5,0.3-4.1-0.7c-1.6-0.9-3-2.4-4.1-4c-1-1.6-1.7-3.5-1.7-5
		c0-1.6,0.6-2.7,1.7-3.1c1-0.4,2.5-0.3,4.1,0.7c1.6,0.9,3,2.4,4.1,4C127,332.6,127.7,334.5,127.7,336.1z"/>
	<path class="st15" d="M103,315.3c0-1.6,0.6-3.4,1.7-5c1-1.6,2.5-3.1,4.1-4c1.6-0.9,3-1.1,4.1-0.7c0.1,0,0.2,0.1,0.3,0.2
		c0,0,0.9,0.5,0.9,0.5l-0.1,0.2c0.4,0.6,0.6,1.3,0.6,2.2c0,1.6-0.6,3.4-1.7,5c-1,1.6-2.5,3.1-4.1,4c-1.1,0.6-2.1,0.9-3,0.9l-0.2,0.3
		l-1.2-0.7C103.6,317.8,103,316.8,103,315.3z"/>
	<path class="st16" d="M103,315.3c0-1.6,0.6-3.4,1.7-5c1-1.6,2.5-3.1,4.1-4c1.6-0.9,3-1.1,4.1-0.7c0.1,0,0.2,0.1,0.3,0.2
		c0,0,0.9,0.5,0.9,0.5l-0.1,0.2c0.4,0.6,0.6,1.3,0.6,2.2c0,1.6-0.6,3.4-1.7,5c-1,1.6-2.5,3.1-4.1,4c-1.1,0.6-2.1,0.9-3,0.9l-0.2,0.3
		l-1.2-0.7C103.6,317.8,103,316.8,103,315.3z"/>
	<path class="st15" d="M104.1,315.9c0,1.6,0.6,2.7,1.7,3.1c1,0.4,2.5,0.3,4.1-0.7c1.6-0.9,3-2.4,4.1-4c1-1.6,1.7-3.5,1.7-5
		s-0.6-2.7-1.7-3.1c-1-0.4-2.5-0.3-4.1,0.7c-1.6,0.9-3,2.4-4.1,4C104.7,312.5,104.1,314.3,104.1,315.9z"/>
	<path class="st15" d="M152.3,340.7c-0.4-0.7-1-1.3-1.9-1.8c-3-1.7-7.8-1.7-10.8,0c-0.9,0.5-1.6,1.2-1.9,1.9l-0.3,0v1.2
		c0,1.1,0.7,2.3,2.2,3.1c3,1.7,7.8,1.7,10.8,0c1.5-0.9,2.2-2,2.2-3.1v-1.3L152.3,340.7z"/>
	<path class="st15" d="M150.4,337.7c3,1.7,3,4.5,0,6.2c-3,1.7-7.8,1.7-10.8,0c-3-1.7-3-4.5,0-6.2
		C142.6,335.9,147.4,335.9,150.4,337.7z"/>
	<path class="st16" d="M150.4,337.7c3,1.7,3,4.5,0,6.2c-3,1.7-7.8,1.7-10.8,0c-3-1.7-3-4.5,0-6.2
		C142.6,335.9,147.4,335.9,150.4,337.7z"/>
	<path class="st15" d="M164.7,321.5c-0.4-0.7-1-1.3-1.9-1.8c-3-1.7-7.8-1.7-10.8,0c-0.9,0.5-1.6,1.2-1.9,1.9l-0.3,0v1.2
		c0,1.1,0.7,2.3,2.2,3.1c3,1.7,7.8,1.7,10.8,0c1.5-0.9,2.2-2,2.2-3.1v-1.3L164.7,321.5z"/>
	<path class="st16" d="M164.7,321.5c-0.4-0.7-1-1.3-1.9-1.8c-3-1.7-7.8-1.7-10.8,0c-0.9,0.5-1.6,1.2-1.9,1.9l-0.3,0v1.2
		c0,1.1,0.7,2.3,2.2,3.1c3,1.7,7.8,1.7,10.8,0c1.5-0.9,2.2-2,2.2-3.1v-1.3L164.7,321.5z"/>
	<path class="st15" d="M162.8,318.4c3,1.7,3,4.5,0,6.2c-3,1.7-7.8,1.7-10.8,0c-3-1.7-3-4.5,0-6.2C155,316.7,159.8,316.7,162.8,318.4
		z"/>
	<path class="st15" d="M159.7,316.9c-0.5-0.6-1.2-1.1-2.2-1.4c-3.3-1.1-8-0.2-10.6,2.1c-0.8,0.7-1.3,1.5-1.5,2.2l-0.3,0.1l0.2,1.2
		c0.2,1.1,1.2,2.1,2.8,2.6c3.3,1.1,8,0.2,10.6-2.1c1.3-1.1,1.8-2.4,1.6-3.5l-0.3-1.3L159.7,316.9z"/>
	<path class="st16" d="M159.7,316.9c-0.5-0.6-1.2-1.1-2.2-1.4c-3.3-1.1-8-0.2-10.6,2.1c-0.8,0.7-1.3,1.5-1.5,2.2l-0.3,0.1l0.2,1.2
		c0.2,1.1,1.2,2.1,2.8,2.6c3.3,1.1,8,0.2,10.6-2.1c1.3-1.1,1.8-2.4,1.6-3.5l-0.3-1.3L159.7,316.9z"/>
	<path class="st15" d="M157.2,314.2c3.3,1.1,3.8,3.8,1.2,6.1c-2.6,2.3-7.3,3.2-10.6,2.1c-3.3-1.1-3.8-3.8-1.2-6.1
		C149.2,314.1,154,313.1,157.2,314.2z"/>
	<path class="st14" d="M122,299.6c0,0,1.6,6.3,1.2,10l-7.4-4.2c0,0,0.5-3.1-0.9-9.9L122,299.6z"/>
	<path class="st3" d="M122,299.6c0,0,1.6,6.3,1.2,10l-7.4-4.2c0,0,0.5-3.1-0.9-9.9L122,299.6z"/>
	<path class="st14" d="M105.9,299.6l7.5,4.4c0,0,4.8-3.8,8.6-4.4l-7-4.1C115,295.6,110.1,295.7,105.9,299.6z"/>
	<path class="st14" d="M110.1,317.1c0,0,10,0.5,17.5-4.5l3.3,6.4c0,0-7,6.1-23.6,5.6L110.1,317.1z"/>
	<path class="st14" d="M128.7,331.3l8.2-4.5c0,0,8.7,8.2,18.3,8.9l-9.8,5.6C145.4,341.4,131.9,337.6,128.7,331.3z"/>
	<path class="st14" d="M126.8,327.7l8.2-4.5c0,0,9.5,5.1,18.5,7.1l-9.8,5.6C143.8,336,132.1,332.4,126.8,327.7z"/>
	<path class="st14" d="M118.1,312.9l8.2,4.9c0,0,7.9-0.6,16-9.5l-8.1-4.8C134.3,303.5,128.3,310.8,118.1,312.9z"/>
	<path class="st15" d="M141,307.7c-0.4-0.7-1-1.3-1.9-1.8c-3-1.7-7.8-1.7-10.8,0c-0.9,0.5-1.6,1.2-1.9,1.9l-0.3,0v1.2
		c0,1.1,0.7,2.3,2.2,3.1c3,1.7,7.8,1.7,10.8,0c1.5-0.9,2.2-2,2.2-3.1v-1.3L141,307.7z"/>
	<path class="st15" d="M139.1,304.6c3,1.7,3,4.5,0,6.2c-3,1.7-7.8,1.7-10.8,0c-3-1.7-3-4.5,0-6.2
		C131.3,302.9,136.2,302.9,139.1,304.6z"/>
	<path class="st16" d="M139.1,304.6c3,1.7,3,4.5,0,6.2c-3,1.7-7.8,1.7-10.8,0c-3-1.7-3-4.5,0-6.2
		C131.3,302.9,136.2,302.9,139.1,304.6z"/>
	<path class="st15" d="M170.4,332.1c-0.4-0.7-1-1.3-1.9-1.8c-3-1.7-7.8-1.7-10.8,0c-0.9,0.5-1.6,1.2-1.9,1.9l-0.3,0v1.2
		c0,1.1,0.7,2.3,2.2,3.1c3,1.7,7.8,1.7,10.8,0c1.5-0.9,2.2-2,2.2-3.1v-1.3L170.4,332.1z"/>
	<path class="st15" d="M168.5,329c3,1.7,3,4.5,0,6.2c-3,1.7-7.8,1.7-10.8,0c-3-1.7-3-4.5,0-6.2C160.7,327.3,165.5,327.3,168.5,329z"
		/>
	<path class="st16" d="M168.5,329c3,1.7,3,4.5,0,6.2c-3,1.7-7.8,1.7-10.8,0c-3-1.7-3-4.5,0-6.2C160.7,327.3,165.5,327.3,168.5,329z"
		/>
	<path class="st15" d="M145.1,322.1c-0.4-0.7-1-1.3-1.9-1.8c-3-1.7-7.8-1.7-10.8,0c-0.9,0.5-1.6,1.2-1.9,1.9l-0.3,0v1.2
		c0,1.1,0.7,2.3,2.2,3.1c3,1.7,7.8,1.7,10.8,0c1.5-0.9,2.2-2,2.2-3.1v-1.3L145.1,322.1z"/>
	<path class="st3" d="M145.1,322.1c-0.4-0.7-1-1.3-1.9-1.8c-3-1.7-7.8-1.7-10.8,0c-0.9,0.5-1.6,1.2-1.9,1.9l-0.3,0v1.2
		c0,1.1,0.7,2.3,2.2,3.1c3,1.7,7.8,1.7,10.8,0c1.5-0.9,2.2-2,2.2-3.1v-1.3L145.1,322.1z"/>
	<ellipse class="st15" cx="137.8" cy="322.1" rx="7.6" ry="4.4"/>
	<path class="st9" d="M135.5,275.7c-2.7,2.8-4.5,2.8-4.5,2.8s-0.8-0.1-1.7-0.4c-0.7-0.3-1.4-0.7-1.7-1.4c-0.7-1.6-1.3-13.1-1.3-13.1
		c0.1,0.1,1.7,1,3.8,1.2c1.8,0.1,4.1-0.3,6.4-2.4C136.6,262.3,138.3,273,135.5,275.7z"/>
	<path class="st15" d="M148.4,281c0-2-0.8-4.2-2.1-6.3c-1.3-2-3.1-3.9-5-5c-2-1.1-3.8-1.4-5-0.8c-0.1,0.1-0.3,0.1-0.4,0.2
		c0,0-1.1,0.6-1.1,0.6l0.2,0.2c-0.5,0.7-0.8,1.6-0.8,2.8c0,2,0.8,4.2,2.1,6.3c1.3,2,3.1,3.9,5,5c1.3,0.8,2.6,1.1,3.7,1.1l0.3,0.4
		l1.5-0.8C147.7,284.1,148.4,282.8,148.4,281z"/>
	<path class="st16" d="M148.4,281c0-2-0.8-4.2-2.1-6.3c-1.3-2-3.1-3.9-5-5c-2-1.1-3.8-1.4-5-0.8c-0.1,0.1-0.3,0.1-0.4,0.2
		c0,0-1.1,0.6-1.1,0.6l0.2,0.2c-0.5,0.7-0.8,1.6-0.8,2.8c0,2,0.8,4.2,2.1,6.3c1.3,2,3.1,3.9,5,5c1.3,0.8,2.6,1.1,3.7,1.1l0.3,0.4
		l1.5-0.8C147.7,284.1,148.4,282.8,148.4,281z"/>
	<path class="st15" d="M147.1,281.8c0,2-0.8,3.3-2.1,3.8s-3.1,0.3-5.1-0.8c-2-1.1-3.8-3-5-5c-1.3-2-2.1-4.3-2.1-6.3s0.8-3.3,2.1-3.8
		c1.3-0.5,3.1-0.3,5,0.8c2,1.1,3.8,3,5.1,5C146.3,277.5,147.1,279.8,147.1,281.8z"/>
	<path class="st9" d="M153.9,284.6c-0.2,0.1-0.4,0.1-0.6,0.2c-5.8,1.3-8.9-10.2-8.9-10.2c-3.1-3.3-6.3-18.7-6.3-18.7
		c-4.7-5.3-16.6-26-16.6-26c-0.6-2-0.6-3.6-0.3-5c0.2-1.1,0.7-2.1,1.3-2.9c1.8-2.5,4.8-3.8,7.9-3.5c1.4,0.1,3.1,0.5,4.5,1.3
		c3.4,1.8,13.6,31.9,13.6,31.9l5,18.5c0,0,0.4,2.7,1.5,8.4C156.1,284.2,153.9,284.6,153.9,284.6z"/>
	<path class="st33" d="M153.3,284.8c-5.8,1.3-8.9-10.2-8.9-10.2c-3.1-3.3-6.3-18.7-6.3-18.7c-4.7-5.3-16.6-26-16.6-26
		c-0.6-2-2.9-4.6-2.6-6l22.3,30.6c0,0,4.9,18,6.3,22.7C148.4,280.3,151.5,283.2,153.3,284.8z"/>
	<path class="st9" d="M136.6,262.3l-1.3,2.5l-4.9,2.5l-0.3-0.3l-3.7-3.6c-2.5-6.7-8.2-12.3-8.9-12.9c0,0,0,0-0.1-0.1
		c0.1-2.5,0.8-4.5,1.9-6c3-4.3,8.4-5.3,8.4-5.3C133,247.5,136.6,262.3,136.6,262.3z"/>
	<path class="st9" d="M127.6,239.2c0,0-3.1,5-5.9,8.4c-1.8,2.1-3.5,3.7-4.3,3c0,0,0,0-0.1-0.1c-2-2.1-13.1-14-17.9-21.6
		c-2.1-3.3-2.9-6.9-3-9.9c-0.2-3.8,0.5-6.7,0.5-6.7c0.9-0.6,1.8-1,2.7-1.2c10.5-2.9,19.9,13.6,19.9,13.6l1.6,2.7L127.6,239.2z"/>
	<path class="st33" d="M130.2,264.7c0,0.8-0.1,1.6-0.1,2.4c-0.2,4.2-0.5,8.3-0.7,11c-0.7-0.3-1.4-0.7-1.7-1.4
		c-0.7-1.6-1.3-13.1-1.3-13.1c-2.5-6.7-8.2-12.3-8.9-12.9c0,0,0,0-0.1-0.1c-2-2.1-13.1-14-17.9-21.6c-2.1-3.3-2.9-6.9-3-9.9
		c-1-2.5-2.2-5.8-3.1-9.3c0,0-8.4-7.4-10.7-8.5c-1.1-0.5-0.9-4.2,0.6-8.1c5.2,4.8,13.7,13.2,16.4,18c2.3,4.1,2.2,7.3,4,12
		c1.2,3.1,3.3,6.7,7.5,11.7c2.9,3.5,5.7,6.7,8.1,9.6c0.9,1.1,1.7,2.1,2.5,3.1C126.9,254.2,130.4,259.7,130.2,264.7z"/>
	<path class="st28" d="M152.2,276.3c0,0-2.5,0.6-2.1,2.3c0.4,1.7,1.5,6.8,4.1,5.9c2.7-0.9,0.3-6.8,0.3-6.8S153.8,276.1,152.2,276.3z
		"/>
	<polygon class="st34" points="183.4,291.5 183.3,291.4 143.2,314.5 94.8,286.7 94.7,286.8 94.7,287 142.9,314.8 142.9,352 
		143.1,352.1 143.3,352 143.3,314.9 183.4,291.7 	"/>
	<polygon class="st35" points="155.3,296.1 127.5,280 122.8,282.7 122.4,282.5 127.5,279.5 155.7,295.9 	"/>
	<path class="st14" d="M162.6,327.9l9.2,5.3c6.6-7.9,7.1-10.5,9.2-17.7l-9.6-5.6C171.4,309.9,168.6,324.1,162.6,327.9z"/>
	<polygon class="st3" points="155.7,295.9 154.3,296.7 153.2,297.3 150.7,298.8 123.8,283.3 122.4,282.5 127.5,279.5 	"/>
	<polygon class="st3" points="127.5,279.5 127.5,281.2 123.8,283.3 122.4,282.5 	"/>
	<polygon class="st3" points="155.7,295.9 154.3,296.7 127.5,281.2 127.5,279.5 	"/>
	<polygon class="st36" points="121.1,339.4 111.2,333.6 98,288.7 107.9,294.5 	"/>
	<polygon class="st36" points="171.7,335.6 164.6,339.6 155.3,307.8 162.3,303.7 	"/>
	<polygon class="st32" points="123.1,307.7 116.1,311.8 106.7,279.9 113.8,275.8 	"/>
</g>
<g>
	<path class="st6" d="M339.8,289.1l-0.3,3.6l2.5,4.1l4.3,4.5l2,3.5l-5.1-2.9l-3.1-1.8l-8.1-9.4c-0.1-0.1-0.2-0.2-0.3-0.4
		c-1.1-1.5-1.4-3.8-0.9-6.3c0.2-1.2,0.6-2.4,1.1-3.6c1.8-4.2,5-7.9,8.6-10c3.2-1.8,6.1-2.1,8.1-0.8c0.5,0.3,1,0.7,1.5,1l6.2,3.5
		c0.1,0,0.4,0.2,0.4,0.2c0.1,0-5.3-0.1-5.3-0.1l-5.7,3.4l-3.6,4.7l-2.2,4.9L339.8,289.1z"/>
	<polygon class="st6" points="331.4,343.4 323.2,338.7 340.1,299.9 348.3,304.7 331.9,342.3 	"/>
	<polygon class="st6" points="350.6,275 349.6,280.1 342.4,296.6 348.8,304.2 350.6,301 353.6,294.3 356.7,286.9 358.6,281.6 
		358.9,277.7 357.4,275.1 354.3,274.1 350.6,275 	"/>
	<polygon class="st12" points="350.6,275 349.6,280.1 342.4,296.6 348.8,304.2 350.6,301 353.6,294.3 356.7,286.9 358.6,281.6 
		358.9,277.7 357.4,275.1 354.3,274.1 350.6,275 	"/>
	<polygon class="st6" points="349.2,305.7 347.8,308.9 357,319.6 365.2,324.2 349.2,305.7 	"/>
	<polygon class="st12" points="331.4,343.4 323.2,338.7 340.1,299.9 348.3,304.7 331.9,342.3 	"/>
	<polygon class="st12" points="349.2,305.7 347.8,308.9 357,319.6 365.2,324.2 349.2,305.7 	"/>
	<path class="st12" d="M348.3,304.7l-5.1-2.9l-3.1-1.8l-8.1-9.4c-1.3-1.6-1.8-3.9-1.2-6.7l9,5.2l-0.3,3.6l2.5,4.1l4.3,4.5
		L348.3,304.7z"/>
	<path class="st23" d="M356.8,274.2l-5.3-0.1l-5.7,3.4l-3.6,4.7l-2.2,4.9l-0.1,1.9l-9-5.2c0.2-1.2,0.6-2.4,1.1-3.6
		c1.8-4.2,5-7.9,8.6-10c3.2-1.8,6.1-2.1,8.1-0.8c0.5,0.3,1,0.7,1.5,1l6.2,3.5C356.5,273.9,356.8,274.1,356.8,274.2L356.8,274.2z"/>
	<g>
		<path class="st6" d="M332.7,343.4l-1.3,0l16.9-38.7l-8.1-9.4c-1.9-2.2-1.9-6.1-0.1-10.3c1.8-4.2,5-7.9,8.6-10
			c3.8-2.2,7.2-2.2,9.2,0.1c1.9,2.2,1.9,6.1,0.1,10.4l-8.3,19l16.4,19l-0.9,0.8l-16-18.5L332.7,343.4z M353.9,274.6
			c-1.3,0-2.9,0.5-4.6,1.5c-3.4,2-6.4,5.5-8.1,9.4c-1.7,3.8-1.7,7.2-0.1,9.1l7.7,9l8-18.5c1.7-3.8,1.7-7.2,0.1-9.1
			C356.3,275,355.2,274.6,353.9,274.6z"/>
	</g>
</g>
</svg>
